<svg xmlns="http://www.w3.org/2000/svg" xmlns:xlink="http://www.w3.org/1999/xlink" width="500" zoomAndPan="magnify" viewBox="0 0 375 374.999991" height="500" preserveAspectRatio="xMidYMid meet" version="1.0"><defs><g/></defs><g fill="#ffde59" fill-opacity="1"><g transform="translate(31.315732, 258.305197)"><g><path d="M 65.828125 58.484375 C 64.660156 58.484375 63.898438 59.472656 63.546875 61.453125 C 63.203125 63.441406 62.851562 65.425781 62.5 67.40625 C 62.15625 69.394531 61.28125 70.390625 59.875 70.390625 C 58.707031 70.390625 57.539062 69.101562 56.375 66.53125 C 55.207031 63.96875 54.625 62.21875 54.625 61.28125 C 54.625 58.945312 54.914062 56.726562 55.5 54.625 C 56.082031 52.519531 56.609375 50.421875 57.078125 48.328125 L 57.78125 48.671875 C 58.25 48.671875 58.597656 47.441406 58.828125 44.984375 C 59.054688 42.535156 59.289062 40.960938 59.53125 40.265625 C 60 39.796875 60.523438 39.617188 61.109375 39.734375 C 61.691406 39.859375 61.984375 39.453125 61.984375 38.515625 C 61.984375 38.046875 61.921875 37.632812 61.796875 37.28125 C 61.679688 36.9375 61.625 36.648438 61.625 36.421875 C 61.625 36.890625 61.859375 36.1875 62.328125 34.3125 C 62.796875 32.445312 63.378906 30.113281 64.078125 27.3125 C 64.773438 24.507812 65.53125 22 66.34375 19.78125 C 67.164062 17.5625 67.8125 16.453125 68.28125 16.453125 C 68.519531 16.453125 68.867188 16.566406 69.328125 16.796875 C 69.796875 17.035156 70.148438 17.15625 70.390625 17.15625 C 70.847656 17.15625 71.835938 15.695312 73.359375 12.78125 C 74.878906 9.863281 75.753906 8.054688 75.984375 7.359375 L 75.640625 6.296875 C 76.109375 6.066406 76.925781 4.664062 78.09375 2.09375 C 79.257812 -0.46875 79.957031 -1.75 80.1875 -1.75 L 80.546875 -2.09375 C 80.546875 -3.726562 80.773438 -4.546875 81.234375 -4.546875 C 81.703125 -4.546875 82.109375 -4.601562 82.453125 -4.71875 C 82.804688 -4.84375 82.984375 -5.835938 82.984375 -7.703125 L 84.046875 -7.703125 L 83.6875 -10.15625 C 83.457031 -11.320312 84.097656 -12.140625 85.609375 -12.609375 C 87.128906 -13.078125 88.125 -13.773438 88.59375 -14.703125 C 89.0625 -15.640625 89.296875 -16.691406 89.296875 -17.859375 C 89.296875 -19.023438 89.53125 -19.957031 90 -20.65625 C 90.925781 -21.820312 91.972656 -23.394531 93.140625 -25.375 C 94.304688 -27.363281 95.242188 -29.296875 95.953125 -31.171875 L 97.703125 -30.8125 C 98.398438 -30.582031 98.75 -31.75 98.75 -34.3125 C 98.75 -36.882812 98.984375 -38.171875 99.453125 -38.171875 C 99.921875 -38.171875 100.675781 -38.285156 101.71875 -38.515625 C 102.769531 -38.753906 103.179688 -39.222656 102.953125 -39.921875 L 102.59375 -41.3125 C 102.363281 -42.019531 102.773438 -42.375 103.828125 -42.375 C 104.878906 -42.375 105.40625 -43.304688 105.40625 -45.171875 C 105.40625 -45.640625 105.34375 -46.222656 105.21875 -46.921875 C 105.101562 -47.617188 104.695312 -47.96875 104 -47.96875 C 103.300781 -47.96875 102.71875 -47.207031 102.25 -45.6875 C 101.78125 -44.175781 101.195312 -42.660156 100.5 -41.140625 C 99.800781 -39.628906 98.75 -38.875 97.34375 -38.875 L 95.953125 -39.21875 L 95.953125 -37.46875 C 91.273438 -36.53125 88.296875 -35.007812 87.015625 -32.90625 C 85.734375 -30.8125 84.507812 -29.765625 83.34375 -29.765625 C 82.875 -29.765625 82.347656 -29.820312 81.765625 -29.9375 C 81.179688 -30.050781 80.65625 -30.109375 80.1875 -30.109375 C 79.019531 -30.109375 78.492188 -29.582031 78.609375 -28.53125 C 78.722656 -27.488281 77.5 -26.96875 74.9375 -26.96875 C 72.601562 -26.96875 71.4375 -26.085938 71.4375 -24.328125 C 71.4375 -22.578125 70.851562 -21.703125 69.6875 -21.703125 L 68.28125 -22.0625 C 67.582031 -22.289062 66.648438 -21.296875 65.484375 -19.078125 C 64.316406 -16.859375 63.265625 -15.75 62.328125 -15.75 L 60.9375 -16.109375 C 60.46875 -16.335938 60 -15.867188 59.53125 -14.703125 C 59.0625 -13.535156 58.59375 -12.71875 58.125 -12.25 L 57.078125 -11.90625 C 57.078125 -9.570312 55.910156 -8.519531 53.578125 -8.75 C 51.242188 -8.988281 49.726562 -8.289062 49.03125 -6.65625 C 48.320312 -5.019531 47.265625 -3.441406 45.859375 -1.921875 C 44.460938 -0.410156 43.535156 1.160156 43.078125 2.796875 C 42.835938 3.265625 41.898438 3.5 40.265625 3.5 C 38.628906 3.5 37.582031 3.617188 37.125 3.859375 C 36.65625 4.085938 36.300781 4.609375 36.0625 5.421875 C 35.832031 6.242188 35.484375 6.890625 35.015625 7.359375 C 34.078125 7.816406 33.082031 8.046875 32.03125 8.046875 C 30.988281 8.046875 30 8.28125 29.0625 8.75 C 28.125 9.21875 26.488281 10.96875 24.15625 14 C 21.820312 17.039062 20.304688 18.5625 19.609375 18.5625 C 18.671875 18.5625 17.910156 18.269531 17.328125 17.6875 C 16.742188 17.101562 16.101562 16.8125 15.40625 16.8125 C 14.007812 16.8125 12.429688 17.507812 10.671875 18.90625 C 8.921875 20.3125 7.234375 21.015625 5.609375 21.015625 C 0.00390625 21.015625 -5.128906 19.785156 -9.796875 17.328125 C -14.472656 14.878906 -17.160156 10.503906 -17.859375 4.203125 L -18.5625 4.203125 C -18.5625 2.335938 -18.5 -0.285156 -18.375 -3.671875 C -18.257812 -7.054688 -17.972656 -8.75 -17.515625 -8.75 L -16.8125 -8.75 L -16.8125 -10.859375 L -16.109375 -10.5 C -15.410156 -12.375 -15.175781 -13.773438 -15.40625 -14.703125 C -15.632812 -15.640625 -14.9375 -16.925781 -13.3125 -18.5625 C -12.84375 -19.03125 -12.488281 -19.90625 -12.25 -21.1875 C -12.019531 -22.46875 -11.671875 -23.578125 -11.203125 -24.515625 C -10.734375 -25.210938 -10.03125 -25.796875 -9.09375 -26.265625 C -8.164062 -26.734375 -7.703125 -27.316406 -7.703125 -28.015625 L -7.703125 -30.46875 L -7 -30.46875 C -6.769531 -30.695312 -6.65625 -31.046875 -6.65625 -31.515625 L -7 -32.921875 C -7 -32.679688 -6.472656 -33.320312 -5.421875 -34.84375 C -4.378906 -36.363281 -3.269531 -38.054688 -2.09375 -39.921875 C -0.925781 -41.785156 -0.226562 -42.835938 0 -43.078125 C 1.632812 -44.472656 3.09375 -46.804688 4.375 -50.078125 C 5.65625 -53.347656 6.820312 -56.441406 7.875 -59.359375 C 8.925781 -62.273438 9.921875 -63.734375 10.859375 -63.734375 C 11.554688 -63.734375 12.140625 -63.613281 12.609375 -63.375 C 12.609375 -63.613281 12.957031 -64.082031 13.65625 -64.78125 L 15.40625 -67.234375 C 15.632812 -67.703125 16.679688 -68.925781 18.546875 -70.90625 C 20.421875 -72.894531 21.472656 -73.890625 21.703125 -73.890625 L 21.703125 -75.640625 L 23.109375 -75.28125 L 23.109375 -77.03125 L 24.859375 -77.390625 L 25.5625 -78.4375 C 25.332031 -78.664062 25.21875 -79.25 25.21875 -80.1875 C 25.21875 -81.125 25.800781 -81.59375 26.96875 -81.59375 C 27.425781 -81.59375 27.832031 -81.53125 28.1875 -81.40625 C 28.539062 -81.289062 28.832031 -81.234375 29.0625 -81.234375 L 29.765625 -81.59375 C 29.765625 -83.457031 30.929688 -84.5625 33.265625 -84.90625 C 35.597656 -85.257812 37.929688 -85.4375 40.265625 -85.4375 C 42.597656 -85.4375 43.765625 -86.019531 43.765625 -87.1875 C 43.765625 -87.894531 43.472656 -88.65625 42.890625 -89.46875 C 42.304688 -90.28125 42.015625 -91.039062 42.015625 -91.75 C 42.015625 -92.675781 42.367188 -93.140625 43.078125 -93.140625 C 43.535156 -93.140625 43.941406 -93.082031 44.296875 -92.96875 C 44.648438 -92.851562 44.941406 -92.796875 45.171875 -92.796875 L 51.125 -98.75 L 50.78125 -99.796875 C 51.007812 -99.796875 51.179688 -99.851562 51.296875 -99.96875 C 51.410156 -100.09375 51.585938 -100.15625 51.828125 -100.15625 C 52.296875 -100.15625 52.703125 -100.09375 53.046875 -99.96875 C 53.398438 -99.851562 53.691406 -99.796875 53.921875 -99.796875 C 54.628906 -99.796875 54.984375 -100.144531 54.984375 -100.84375 C 54.984375 -101.3125 54.921875 -101.835938 54.796875 -102.421875 C 54.679688 -103.003906 54.625 -103.414062 54.625 -103.65625 C 54.625 -104.351562 54.972656 -104.816406 55.671875 -105.046875 C 56.140625 -105.285156 56.957031 -104.644531 58.125 -103.125 C 59.289062 -101.601562 60.226562 -100.84375 60.9375 -100.84375 C 61.394531 -100.84375 62.03125 -101.25 62.84375 -102.0625 C 63.664062 -102.882812 64.078125 -103.53125 64.078125 -104 C 64.078125 -104.9375 63.4375 -105.34375 62.15625 -105.21875 C 60.875 -105.101562 60.234375 -105.75 60.234375 -107.15625 C 60.234375 -107.625 60.40625 -108.378906 60.75 -109.421875 C 61.101562 -110.472656 61.628906 -111 62.328125 -111 C 62.796875 -111 63.203125 -110.765625 63.546875 -110.296875 C 63.898438 -109.835938 64.195312 -109.609375 64.4375 -109.609375 C 65.132812 -109.609375 65.597656 -110.363281 65.828125 -111.875 C 66.066406 -113.394531 66.769531 -114.15625 67.9375 -114.15625 C 68.164062 -114.15625 68.335938 -114.097656 68.453125 -113.984375 C 68.578125 -113.867188 68.753906 -113.8125 68.984375 -113.8125 C 69.210938 -113.8125 69.734375 -114.453125 70.546875 -115.734375 C 71.367188 -117.015625 71.898438 -117.773438 72.140625 -118.015625 C 72.597656 -118.242188 73.234375 -118.414062 74.046875 -118.53125 C 74.867188 -118.644531 75.398438 -118.820312 75.640625 -119.0625 L 75.640625 -119.765625 L 77.390625 -119.765625 L 77.390625 -120.8125 L 78.78125 -120.8125 L 79.140625 -121.859375 L 81.234375 -121.859375 L 80.890625 -122.5625 L 81.59375 -122.90625 C 84.15625 -122.90625 85.789062 -123.957031 86.5 -126.0625 C 86.957031 -127.457031 88.117188 -128.210938 89.984375 -128.328125 C 91.859375 -128.453125 92.910156 -129.097656 93.140625 -130.265625 C 94.304688 -133.296875 96.054688 -135.101562 98.390625 -135.6875 C 100.734375 -136.269531 102.253906 -136.679688 102.953125 -136.921875 L 102.59375 -137.265625 C 103.0625 -137.503906 103.585938 -137.625 104.171875 -137.625 C 104.753906 -137.625 105.164062 -137.625 105.40625 -137.625 L 105.40625 -138.671875 L 107.15625 -138.671875 L 107.15625 -139.71875 C 107.851562 -140.1875 108.609375 -140.421875 109.421875 -140.421875 C 110.242188 -140.421875 111.003906 -140.535156 111.703125 -140.765625 L 111.703125 -141.8125 L 116.25 -141.8125 L 116.25 -142.515625 L 118.015625 -142.875 L 118.015625 -143.578125 C 119.410156 -143.578125 120.863281 -143.691406 122.375 -143.921875 C 123.894531 -144.148438 125.359375 -144.265625 126.765625 -144.265625 C 127.234375 -144.265625 128.34375 -144.085938 130.09375 -143.734375 C 131.84375 -143.390625 132.71875 -142.632812 132.71875 -141.46875 C 132.71875 -141.238281 132.65625 -141.0625 132.53125 -140.9375 C 132.414062 -140.820312 132.359375 -140.648438 132.359375 -140.421875 C 132.128906 -140.179688 132.832031 -139.65625 134.46875 -138.84375 C 136.101562 -138.03125 136.921875 -137.390625 136.921875 -136.921875 C 137.617188 -137.390625 138.082031 -137.625 138.3125 -137.625 C 138.550781 -137.625 139.835938 -137.035156 142.171875 -135.859375 C 144.503906 -134.691406 146.835938 -133.46875 149.171875 -132.1875 C 151.503906 -130.90625 152.671875 -129.796875 152.671875 -128.859375 C 152.671875 -127.929688 151.910156 -127.234375 150.390625 -126.765625 C 148.878906 -126.296875 147.773438 -126.0625 147.078125 -126.0625 C 145.203125 -126.0625 143.332031 -126.234375 141.46875 -126.578125 C 139.601562 -126.929688 137.734375 -127.109375 135.859375 -127.109375 C 134.929688 -127.109375 134 -126.929688 133.0625 -126.578125 C 132.132812 -126.234375 131.082031 -126.0625 129.90625 -126.0625 C 129.207031 -126.0625 128.445312 -126.117188 127.625 -126.234375 C 126.8125 -126.347656 125.941406 -126.40625 125.015625 -126.40625 C 123.609375 -126.40625 122.554688 -125.941406 121.859375 -125.015625 L 121.859375 -124.65625 L 122.5625 -125.015625 C 122.5625 -124.773438 122.617188 -124.476562 122.734375 -124.125 C 122.847656 -123.78125 122.90625 -123.375 122.90625 -122.90625 C 122.90625 -121.738281 122.320312 -121.15625 121.15625 -121.15625 C 120.226562 -121.15625 119.765625 -121.503906 119.765625 -122.203125 C 119.765625 -122.671875 119.9375 -123.078125 120.28125 -123.421875 C 120.632812 -123.773438 120.8125 -124.070312 120.8125 -124.3125 C 120.8125 -124.78125 120.519531 -125.128906 119.9375 -125.359375 C 119.351562 -125.597656 118.828125 -125.71875 118.359375 -125.71875 C 117.191406 -125.71875 116.195312 -125.304688 115.375 -124.484375 C 114.5625 -123.671875 113.804688 -123.265625 113.109375 -123.265625 C 112.640625 -123.265625 112.171875 -123.4375 111.703125 -123.78125 C 111.234375 -124.132812 110.765625 -124.3125 110.296875 -124.3125 C 109.367188 -124.3125 108.785156 -123.84375 108.546875 -122.90625 C 108.316406 -121.976562 107.851562 -121.28125 107.15625 -120.8125 C 106.914062 -120.570312 106.09375 -120.394531 104.6875 -120.28125 C 103.289062 -120.164062 102.59375 -119.875 102.59375 -119.40625 L 102.953125 -119.0625 C 102.484375 -118.820312 101.253906 -118.0625 99.265625 -116.78125 C 97.285156 -115.5 96.179688 -114.859375 95.953125 -114.859375 L 95.25 -114.5 L 95.59375 -113.8125 C 95.125 -113.34375 94.539062 -113.046875 93.84375 -112.921875 C 93.144531 -112.804688 92.5625 -112.519531 92.09375 -112.0625 C 91.863281 -111.820312 91.804688 -111.289062 91.921875 -110.46875 C 92.035156 -109.65625 91.742188 -109.367188 91.046875 -109.609375 L 88.59375 -109.953125 C 87.65625 -110.179688 87.1875 -109.890625 87.1875 -109.078125 C 87.1875 -108.265625 86.957031 -107.859375 86.5 -107.859375 C 86.257812 -107.859375 86.019531 -108.03125 85.78125 -108.375 C 85.550781 -108.726562 85.203125 -108.90625 84.734375 -108.90625 L 84.734375 -107.859375 C 84.273438 -107.390625 84.101562 -106.742188 84.21875 -105.921875 C 84.332031 -105.109375 83.921875 -104.46875 82.984375 -104 C 81.816406 -103.300781 80.414062 -102.953125 78.78125 -102.953125 C 77.15625 -102.953125 75.757812 -102.367188 74.59375 -101.203125 C 73.65625 -100.265625 73.242188 -99.503906 73.359375 -98.921875 C 73.472656 -98.335938 72.597656 -98.046875 70.734375 -98.046875 L 70.03125 -97.703125 L 70.390625 -97 C 69.222656 -96.300781 67.9375 -95.597656 66.53125 -94.890625 C 65.132812 -94.191406 63.617188 -92.5625 61.984375 -90 L 61.984375 -89.296875 C 60.347656 -89.296875 59.296875 -88.535156 58.828125 -87.015625 C 58.359375 -85.492188 57.890625 -84.734375 57.421875 -84.734375 C 56.960938 -84.734375 56.734375 -84.96875 56.734375 -85.4375 C 56.734375 -85.90625 56.5 -86.140625 56.03125 -86.140625 L 55.671875 -85.796875 L 55.671875 -84.734375 C 55.671875 -83.804688 55.085938 -83.34375 53.921875 -83.34375 C 52.753906 -83.34375 51.820312 -82.992188 51.125 -82.296875 C 50.65625 -81.828125 50.476562 -81.066406 50.59375 -80.015625 C 50.71875 -78.960938 50.3125 -78.320312 49.375 -78.09375 C 48.4375 -77.851562 47.734375 -76.566406 47.265625 -74.234375 C 46.804688 -71.898438 45.992188 -69.503906 44.828125 -67.046875 C 43.660156 -64.597656 41.207031 -63.023438 37.46875 -62.328125 C 36.53125 -62.097656 35.300781 -61.804688 33.78125 -61.453125 C 32.269531 -61.109375 31.628906 -60.46875 31.859375 -59.53125 L 32.21875 -57.78125 L 31.859375 -57.078125 L 31.171875 -57.078125 C 29.765625 -57.078125 29.0625 -56.023438 29.0625 -53.921875 C 29.0625 -51.828125 28.59375 -50.3125 27.65625 -49.375 C 26.726562 -48.90625 25.5625 -48.03125 24.15625 -46.75 C 22.757812 -45.46875 22.0625 -43.890625 22.0625 -42.015625 L 21.703125 -41.3125 L 21.359375 -41.671875 C 19.722656 -38.398438 18.492188 -36.003906 17.671875 -34.484375 C 16.859375 -32.972656 14.46875 -31.398438 10.5 -29.765625 C 9.800781 -29.535156 9.453125 -29.007812 9.453125 -28.1875 C 9.453125 -27.375 8.867188 -26.96875 7.703125 -26.96875 L 5.609375 -26.96875 C 5.367188 -26.96875 5.191406 -26.847656 5.078125 -26.609375 C 4.960938 -26.378906 4.90625 -25.332031 4.90625 -23.46875 L 4.546875 -23.109375 L 2.796875 -19.609375 C 2.328125 -18.671875 1.625 -17.382812 0.6875 -15.75 C -0.238281 -14.125 -1.285156 -13.078125 -2.453125 -12.609375 L -2.453125 -11.5625 C -2.679688 -11.5625 -2.972656 -11.617188 -3.328125 -11.734375 C -3.679688 -11.847656 -3.972656 -11.90625 -4.203125 -11.90625 C -5.140625 -11.90625 -5.488281 -11.4375 -5.25 -10.5 L -4.90625 -8.75 L -4.203125 -8.75 L -3.5 -7.359375 C -3.738281 -7.359375 -3.914062 -7.179688 -4.03125 -6.828125 C -4.144531 -6.472656 -4.4375 -6.296875 -4.90625 -6.296875 L -5.609375 -6.65625 C -5.835938 -6.65625 -6.125 -5.78125 -6.46875 -4.03125 C -6.820312 -2.28125 -7 -1.171875 -7 -0.703125 L -7.359375 0.703125 C -7.117188 3.734375 -6.125 6.707031 -4.375 9.625 C -2.625 12.539062 0 14 3.5 14 C 6.300781 14 8.75 12.539062 10.84375 9.625 C 12.945312 6.707031 14.46875 5.132812 15.40625 4.90625 C 17.738281 3.738281 19.601562 2.21875 21 0.34375 C 22.40625 -1.519531 23.925781 -3.382812 25.5625 -5.25 C 26.03125 -5.945312 27.664062 -6.703125 30.46875 -7.515625 C 33.269531 -8.335938 35.953125 -9.273438 38.515625 -10.328125 C 41.085938 -11.378906 42.253906 -12.140625 42.015625 -12.609375 L 41.671875 -14.359375 L 42.375 -14.359375 C 42.132812 -14.117188 42.65625 -14.234375 43.9375 -14.703125 C 45.226562 -15.171875 46.628906 -15.753906 48.140625 -16.453125 C 49.660156 -17.160156 50.421875 -17.742188 50.421875 -18.203125 C 50.421875 -18.441406 50.1875 -18.5625 49.71875 -18.5625 C 50.425781 -18.5625 51.828125 -19.492188 53.921875 -21.359375 C 56.023438 -23.222656 57.894531 -24.972656 59.53125 -26.609375 L 60.234375 -26.265625 C 60.703125 -26.265625 60.9375 -26.90625 60.9375 -28.1875 C 60.9375 -29.46875 61.398438 -30.109375 62.328125 -30.109375 C 62.796875 -30.109375 63.203125 -30.050781 63.546875 -29.9375 C 63.898438 -29.820312 64.195312 -29.765625 64.4375 -29.765625 L 65.484375 -30.46875 L 65.125 -31.859375 L 65.828125 -32.5625 L 67.234375 -32.21875 L 67.9375 -32.921875 L 67.578125 -34.3125 L 69.328125 -34.3125 C 70.035156 -34.3125 71.203125 -35.242188 72.828125 -37.109375 C 74.460938 -38.984375 75.976562 -40.851562 77.375 -42.71875 C 78.78125 -44.582031 79.601562 -45.515625 79.84375 -45.515625 L 81.234375 -45.171875 C 82.640625 -45.171875 83.867188 -45.8125 84.921875 -47.09375 C 85.972656 -48.382812 86.5 -49.726562 86.5 -51.125 C 86.5 -51.820312 86.03125 -52.40625 85.09375 -52.875 C 84.15625 -53.34375 83.6875 -53.925781 83.6875 -54.625 C 83.6875 -56.488281 84.625 -57.421875 86.5 -57.421875 C 88.363281 -57.421875 89.351562 -57.070312 89.46875 -56.375 C 89.582031 -55.675781 89.582031 -54.914062 89.46875 -54.09375 C 89.351562 -53.28125 89.878906 -52.875 91.046875 -52.875 C 92.210938 -52.875 93.085938 -53.75 93.671875 -55.5 C 94.253906 -57.25 95.015625 -58.125 95.953125 -58.125 C 96.410156 -58.125 96.753906 -58.066406 96.984375 -57.953125 C 97.222656 -57.835938 97.460938 -57.78125 97.703125 -57.78125 C 98.398438 -57.78125 98.75 -58.363281 98.75 -59.53125 C 98.75 -60.695312 98.863281 -61.394531 99.09375 -61.625 C 100.5 -62.789062 102.484375 -64.304688 105.046875 -66.171875 C 107.617188 -68.046875 110.070312 -69.800781 112.40625 -71.4375 L 112.0625 -72.828125 L 112.75 -73.53125 L 114.5 -73.53125 C 114.5 -74 114.441406 -74.347656 114.328125 -74.578125 C 114.210938 -74.816406 114.15625 -75.050781 114.15625 -75.28125 C 114.15625 -74.820312 114.851562 -75.582031 116.25 -77.5625 C 117.65625 -79.550781 118.828125 -80.546875 119.765625 -80.546875 C 119.992188 -80.546875 120.222656 -80.484375 120.453125 -80.359375 C 120.691406 -80.242188 120.925781 -80.1875 121.15625 -80.1875 C 122.320312 -80.1875 123.894531 -81.46875 125.875 -84.03125 C 127.863281 -86.601562 129.207031 -88.238281 129.90625 -88.9375 L 132.71875 -92.796875 C 132.71875 -93.023438 132.773438 -93.195312 132.890625 -93.3125 C 133.003906 -93.4375 133.0625 -93.5 133.0625 -93.5 L 133.0625 -93.140625 L 133.421875 -93.5 C 133.878906 -93.5 134.222656 -93.4375 134.453125 -93.3125 C 134.691406 -93.195312 134.929688 -93.140625 135.171875 -93.140625 C 135.867188 -93.140625 136.859375 -94.421875 138.140625 -96.984375 C 139.421875 -99.554688 140.296875 -100.726562 140.765625 -100.5 L 142.171875 -100.15625 L 142.515625 -101.203125 C 142.753906 -101.671875 143.222656 -102.425781 143.921875 -103.46875 C 144.617188 -104.519531 145.085938 -105.046875 145.328125 -105.046875 L 146.71875 -104.703125 C 147.1875 -104.703125 148.0625 -106.160156 149.34375 -109.078125 C 150.632812 -111.992188 151.507812 -113.6875 151.96875 -114.15625 C 152.4375 -114.625 153.78125 -115.847656 156 -117.828125 C 158.21875 -119.816406 159.328125 -121.046875 159.328125 -121.515625 L 160.734375 -121.15625 C 161.429688 -120.925781 162.304688 -122.035156 163.359375 -124.484375 C 164.410156 -126.929688 165.285156 -128.273438 165.984375 -128.515625 C 167.847656 -129.910156 168.78125 -130.726562 168.78125 -130.96875 C 168.78125 -133.53125 169.769531 -135.160156 171.75 -135.859375 C 173.738281 -136.566406 175.316406 -138.785156 176.484375 -142.515625 C 176.953125 -142.515625 177.359375 -142.457031 177.703125 -142.34375 C 178.054688 -142.226562 178.351562 -142.171875 178.59375 -142.171875 C 179.050781 -142.171875 179.570312 -143.394531 180.15625 -145.84375 C 180.738281 -148.289062 181.148438 -149.515625 181.390625 -149.515625 L 182.796875 -149.171875 C 183.253906 -149.171875 184.300781 -149.867188 185.9375 -151.265625 C 187.570312 -152.671875 189.144531 -154.191406 190.65625 -155.828125 C 192.175781 -157.460938 192.9375 -158.515625 192.9375 -158.984375 C 192.9375 -159.441406 192.878906 -159.726562 192.765625 -159.84375 C 192.648438 -159.96875 192.59375 -160.144531 192.59375 -160.375 C 192.59375 -160.84375 192.941406 -161.191406 193.640625 -161.421875 L 195.046875 -161.078125 C 195.515625 -161.546875 196.859375 -162.65625 199.078125 -164.40625 C 201.296875 -166.15625 202.40625 -167.144531 202.40625 -167.375 C 202.40625 -167.84375 202.171875 -168.3125 201.703125 -168.78125 C 201.234375 -169.25 201 -169.71875 201 -170.1875 L 201 -170.53125 C 201.46875 -170.53125 201.875 -170.472656 202.21875 -170.359375 C 202.570312 -170.242188 202.863281 -170.1875 203.09375 -170.1875 C 204.03125 -169.945312 204.789062 -170.992188 205.375 -173.328125 C 205.957031 -175.671875 206.71875 -176.84375 207.65625 -176.84375 C 208.125 -176.84375 208.585938 -176.78125 209.046875 -176.65625 C 209.515625 -176.539062 209.984375 -176.484375 210.453125 -176.484375 L 210.796875 -177.53125 L 211.859375 -177.890625 L 211.5 -180.34375 L 212.203125 -181.03125 L 214.65625 -180.6875 C 215.820312 -180.457031 216.460938 -181.273438 216.578125 -183.140625 C 216.691406 -185.003906 217.101562 -185.9375 217.8125 -185.9375 C 218.269531 -185.9375 218.613281 -185.878906 218.84375 -185.765625 C 219.082031 -185.648438 219.320312 -185.59375 219.5625 -185.59375 C 220.257812 -185.59375 220.550781 -186.703125 220.4375 -188.921875 C 220.320312 -191.140625 220.726562 -192.128906 221.65625 -191.890625 L 224.109375 -191.546875 L 224.453125 -192.9375 L 225.515625 -192.59375 L 225.859375 -193.296875 C 225.859375 -193.765625 225.800781 -194.171875 225.6875 -194.515625 C 225.570312 -194.867188 225.515625 -195.160156 225.515625 -195.390625 C 225.515625 -196.097656 225.863281 -196.453125 226.5625 -196.453125 C 227.03125 -196.453125 227.4375 -196.390625 227.78125 -196.265625 C 228.132812 -196.148438 228.425781 -196.09375 228.65625 -196.09375 C 229.59375 -196.09375 230.117188 -196.96875 230.234375 -198.71875 C 230.347656 -200.46875 230.757812 -201.578125 231.46875 -202.046875 C 231.925781 -202.515625 232.503906 -202.75 233.203125 -202.75 C 233.910156 -202.75 234.5 -202.984375 234.96875 -203.453125 C 235.4375 -203.921875 235.671875 -204.675781 235.671875 -205.71875 C 235.671875 -206.769531 236.019531 -207.179688 236.71875 -206.953125 L 239.171875 -206.59375 C 240.335938 -206.363281 241.503906 -207.472656 242.671875 -209.921875 C 243.835938 -212.378906 244.421875 -214.070312 244.421875 -215 C 244.421875 -215.9375 244.007812 -216.347656 243.1875 -216.234375 C 242.375 -216.117188 241.96875 -216.523438 241.96875 -217.453125 C 241.96875 -218.148438 242.203125 -218.5 242.671875 -218.5 C 244.535156 -218.5 245.523438 -218.09375 245.640625 -217.28125 C 245.765625 -216.46875 246.523438 -216.0625 247.921875 -216.0625 L 247.921875 -218.15625 C 247.921875 -219.5625 249.03125 -221.195312 251.25 -223.0625 C 253.46875 -224.925781 254.8125 -225.859375 255.28125 -225.859375 C 257.375 -225.859375 258.421875 -226.382812 258.421875 -227.4375 C 258.421875 -228.488281 258.890625 -229.476562 259.828125 -230.40625 C 260.296875 -230.875 260.878906 -231.050781 261.578125 -230.9375 C 262.273438 -230.820312 262.859375 -231 263.328125 -231.46875 C 263.554688 -231.695312 263.726562 -232.394531 263.84375 -233.5625 C 263.96875 -234.726562 264.265625 -235.195312 264.734375 -234.96875 L 266.125 -234.609375 C 267.0625 -234.378906 268.113281 -235.546875 269.28125 -238.109375 C 270.445312 -240.679688 271.847656 -241.96875 273.484375 -241.96875 L 273.484375 -243.71875 L 274.1875 -244.421875 L 274.890625 -244.421875 C 276.753906 -244.421875 278.503906 -245.410156 280.140625 -247.390625 C 281.773438 -249.378906 282.59375 -251.070312 282.59375 -252.46875 C 284.226562 -252.46875 286.210938 -251.765625 288.546875 -250.359375 C 290.878906 -248.960938 292.976562 -247.332031 294.84375 -245.46875 C 296.707031 -243.601562 297.640625 -241.851562 297.640625 -240.21875 C 297.640625 -239.28125 296.707031 -237.175781 294.84375 -233.90625 C 292.976562 -230.644531 291.460938 -229.015625 290.296875 -229.015625 L 291.34375 -224.453125 L 289.9375 -224.8125 C 289.238281 -224.8125 288.890625 -224.578125 288.890625 -224.109375 C 288.890625 -223.640625 289.125 -223.171875 289.59375 -222.703125 C 290.0625 -222.242188 290.296875 -221.78125 290.296875 -221.3125 C 290.296875 -220.84375 290.0625 -220.609375 289.59375 -220.609375 C 289.351562 -220.609375 289 -220.722656 288.53125 -220.953125 C 288.070312 -221.191406 287.609375 -221.3125 287.140625 -221.3125 C 286.441406 -221.3125 286.03125 -220.726562 285.90625 -219.5625 C 285.789062 -218.394531 285.734375 -217.109375 285.734375 -215.703125 C 285.734375 -214.066406 285.675781 -212.664062 285.5625 -211.5 C 285.445312 -210.332031 285.15625 -209.75 284.6875 -209.75 C 283.519531 -209.75 282.9375 -210.21875 282.9375 -211.15625 C 282.9375 -211.625 283.050781 -212.085938 283.28125 -212.546875 C 283.519531 -213.015625 283.640625 -213.484375 283.640625 -213.953125 C 283.640625 -214.890625 283.171875 -215.359375 282.234375 -215.359375 C 281.765625 -215.359375 281.296875 -215.179688 280.828125 -214.828125 C 280.367188 -214.484375 279.90625 -214.078125 279.4375 -213.609375 L 279.78125 -212.546875 L 279.09375 -212.546875 C 278.625 -212.546875 278.390625 -212.664062 278.390625 -212.90625 C 278.390625 -213.132812 278.445312 -213.304688 278.5625 -213.421875 C 278.675781 -213.546875 278.734375 -213.609375 278.734375 -213.609375 C 278.734375 -213.835938 278.5 -213.953125 278.03125 -213.953125 C 277.570312 -213.953125 277.222656 -213.953125 276.984375 -213.953125 C 273.710938 -213.953125 272.078125 -212.671875 272.078125 -210.109375 C 272.078125 -208.472656 272.425781 -207.476562 273.125 -207.125 C 273.832031 -206.769531 274.1875 -206.128906 274.1875 -205.203125 C 274.1875 -201.929688 274.710938 -200.117188 275.765625 -199.765625 C 276.816406 -199.421875 277.863281 -199.304688 278.90625 -199.421875 C 279.957031 -199.535156 280.484375 -198.546875 280.484375 -196.453125 C 280.484375 -195.515625 279.785156 -195.046875 278.390625 -195.046875 C 277.691406 -195.046875 276.289062 -195.335938 274.1875 -195.921875 C 272.082031 -196.503906 271.03125 -197.265625 271.03125 -198.203125 C 271.03125 -198.660156 271.144531 -199.066406 271.375 -199.421875 C 271.613281 -199.773438 271.734375 -200.066406 271.734375 -200.296875 C 271.734375 -200.765625 271.265625 -201.113281 270.328125 -201.34375 C 269.398438 -201.582031 268.703125 -201.703125 268.234375 -201.703125 C 267.992188 -201.703125 267.40625 -201.582031 266.46875 -201.34375 C 265.539062 -201.113281 265.078125 -200.765625 265.078125 -200.296875 C 265.078125 -199.828125 265.191406 -199.414062 265.421875 -199.0625 C 265.660156 -198.71875 265.78125 -198.3125 265.78125 -197.84375 C 265.78125 -197.144531 265.3125 -196.796875 264.375 -196.796875 C 264.144531 -196.796875 263.96875 -196.851562 263.84375 -196.96875 C 263.726562 -197.082031 263.554688 -197.140625 263.328125 -197.140625 C 263.097656 -197.140625 262.984375 -196.328125 262.984375 -194.703125 C 262.984375 -194.234375 263.445312 -193.765625 264.375 -193.296875 C 265.3125 -192.828125 265.78125 -192.359375 265.78125 -191.890625 C 265.78125 -191.191406 265.367188 -190.785156 264.546875 -190.671875 C 263.734375 -190.554688 262.859375 -190.5 261.921875 -190.5 L 261.578125 -190.5 C 261.578125 -190.726562 261.632812 -191.015625 261.75 -191.359375 C 261.863281 -191.710938 261.921875 -192.007812 261.921875 -192.25 C 261.921875 -192.945312 261.570312 -193.296875 260.875 -193.296875 C 259.476562 -193.296875 258.546875 -192.421875 258.078125 -190.671875 C 257.609375 -188.921875 256.675781 -188.046875 255.28125 -188.046875 C 254.570312 -188.046875 254.21875 -187.34375 254.21875 -185.9375 C 254.21875 -185.707031 254.332031 -185.472656 254.5625 -185.234375 C 254.800781 -185.003906 254.921875 -184.65625 254.921875 -184.1875 C 254.921875 -184.65625 254.335938 -184.1875 253.171875 -182.78125 C 252.003906 -181.382812 251.1875 -180.6875 250.71875 -180.6875 C 250.488281 -180.6875 250.195312 -180.800781 249.84375 -181.03125 C 249.5 -181.269531 249.09375 -181.390625 248.625 -181.390625 C 247.457031 -181.390625 246.988281 -180.453125 247.21875 -178.578125 C 247.457031 -176.710938 246.992188 -175.546875 245.828125 -175.078125 C 245.585938 -175.078125 245.46875 -175.019531 245.46875 -174.90625 C 245.46875 -174.789062 245.46875 -174.734375 245.46875 -174.734375 C 245.46875 -174.503906 245.703125 -174.035156 246.171875 -173.328125 C 246.640625 -172.628906 246.875 -172.046875 246.875 -171.578125 L 245.828125 -171.578125 L 245.828125 -170.53125 L 245.125 -170.1875 L 244.421875 -170.890625 L 243.71875 -171.9375 L 243.375 -171.234375 L 243.375 -168.4375 C 243.375 -167.03125 243.253906 -166.210938 243.015625 -165.984375 L 242.671875 -165.984375 C 241.734375 -165.984375 241.03125 -166.210938 240.5625 -166.671875 C 240.101562 -167.140625 239.640625 -167.375 239.171875 -167.375 C 238.460938 -167.375 237.523438 -166.675781 236.359375 -165.28125 C 235.191406 -163.882812 234.023438 -162.953125 232.859375 -162.484375 L 232.515625 -162.125 C 232.515625 -161.894531 232.628906 -161.601562 232.859375 -161.25 C 233.097656 -160.90625 233.21875 -160.613281 233.21875 -160.375 C 233.21875 -159.90625 232.34375 -159.492188 230.59375 -159.140625 C 228.84375 -158.796875 227.085938 -158.332031 225.328125 -157.75 C 223.578125 -157.164062 222.703125 -156.054688 222.703125 -154.421875 C 222.703125 -153.023438 221.648438 -152.207031 219.546875 -151.96875 C 217.453125 -151.738281 216.40625 -150.921875 216.40625 -149.515625 L 213.609375 -149.515625 C 212.671875 -149.515625 212.316406 -149.109375 212.546875 -148.296875 C 212.785156 -147.484375 212.320312 -147.078125 211.15625 -147.078125 C 210.914062 -147.078125 210.617188 -147.132812 210.265625 -147.25 C 209.921875 -147.363281 209.515625 -147.421875 209.046875 -147.421875 C 207.878906 -147.421875 207.410156 -146.953125 207.640625 -146.015625 C 207.878906 -145.085938 207.414062 -144.625 206.25 -144.625 C 206.019531 -144.625 205.726562 -144.679688 205.375 -144.796875 C 205.019531 -144.910156 204.613281 -144.96875 204.15625 -144.96875 C 203.21875 -144.96875 202.691406 -144.382812 202.578125 -143.21875 C 202.460938 -142.050781 201.703125 -141.46875 200.296875 -141.46875 L 199.59375 -141.8125 C 199.125 -141.8125 198.890625 -141.347656 198.890625 -140.421875 L 198.890625 -139.015625 L 199.25 -138.671875 C 200.1875 -139.597656 201.238281 -140.0625 202.40625 -140.0625 L 202.40625 -139.015625 L 203.453125 -139.015625 C 203.210938 -138.316406 202.6875 -138.023438 201.875 -138.140625 C 201.0625 -138.253906 200.65625 -137.726562 200.65625 -136.5625 C 200.65625 -136.09375 200.882812 -135.390625 201.34375 -134.453125 C 201.8125 -133.523438 202.28125 -133.0625 202.75 -133.0625 C 203.21875 -133.0625 203.679688 -133.234375 204.140625 -133.578125 C 204.609375 -133.929688 205.078125 -134.109375 205.546875 -134.109375 C 206.242188 -134.109375 206.59375 -133.410156 206.59375 -132.015625 C 206.59375 -131.078125 206.128906 -130.609375 205.203125 -130.609375 C 204.265625 -130.609375 203.382812 -130.898438 202.5625 -131.484375 C 201.75 -132.066406 200.878906 -132.359375 199.953125 -132.359375 C 198.785156 -132.359375 197.5 -131.304688 196.09375 -129.203125 C 194.695312 -127.109375 194 -125.476562 194 -124.3125 C 194 -124.070312 194.054688 -123.773438 194.171875 -123.421875 C 194.285156 -123.078125 194.34375 -122.671875 194.34375 -122.203125 C 194.34375 -121.742188 193.875 -121.335938 192.9375 -120.984375 C 192.007812 -120.628906 191.3125 -120.335938 190.84375 -120.109375 L 189.796875 -119.765625 C 188.628906 -119.765625 188.046875 -119.296875 188.046875 -118.359375 C 188.046875 -118.128906 188.101562 -117.835938 188.21875 -117.484375 C 188.332031 -117.128906 188.390625 -116.71875 188.390625 -116.25 C 188.390625 -115.550781 188.039062 -115.203125 187.34375 -115.203125 C 186.875 -115.203125 186.40625 -115.257812 185.9375 -115.375 C 185.46875 -115.5 185.003906 -115.5625 184.546875 -115.5625 C 183.609375 -115.5625 183.140625 -115.328125 183.140625 -114.859375 L 183.484375 -113.453125 L 183.140625 -113.109375 L 181.03125 -112.75 L 181.390625 -111.703125 L 182.796875 -111.703125 C 183.253906 -111.703125 182.78125 -111.523438 181.375 -111.171875 C 179.976562 -110.828125 179.28125 -110.304688 179.28125 -109.609375 C 179.28125 -108.203125 180.097656 -107.148438 181.734375 -106.453125 C 183.367188 -105.753906 184.1875 -104.003906 184.1875 -101.203125 C 184.1875 -99.566406 183.367188 -98.75 181.734375 -98.75 C 180.804688 -98.75 179.757812 -99.039062 178.59375 -99.625 C 177.425781 -100.207031 176.253906 -100.5 175.078125 -100.5 L 174.390625 -100.15625 C 173.222656 -100.15625 172.640625 -99.6875 172.640625 -98.75 C 172.640625 -97.34375 172.171875 -96.523438 171.234375 -96.296875 C 170.296875 -96.066406 169.242188 -95.953125 168.078125 -95.953125 L 167.03125 -95.953125 C 165.632812 -95.953125 164.347656 -95.71875 163.171875 -95.25 C 162.003906 -94.78125 161.421875 -93.492188 161.421875 -91.390625 C 161.421875 -91.160156 161.476562 -90.691406 161.59375 -89.984375 C 161.71875 -89.285156 161.78125 -88.585938 161.78125 -87.890625 C 161.78125 -86.253906 161.195312 -85.4375 160.03125 -85.4375 C 159.789062 -85.4375 159.320312 -85.492188 158.625 -85.609375 C 157.925781 -85.734375 157.34375 -85.796875 156.875 -85.796875 C 155.707031 -85.796875 155.125 -85.210938 155.125 -84.046875 C 155.125 -83.109375 155.359375 -82.289062 155.828125 -81.59375 C 156.296875 -80.894531 156.53125 -80.078125 156.53125 -79.140625 L 155.828125 -79.140625 L 155.46875 -78.09375 C 155.007812 -78.09375 154.546875 -78.148438 154.078125 -78.265625 C 153.609375 -78.378906 153.140625 -78.4375 152.671875 -78.4375 C 151.972656 -78.4375 151.097656 -77.207031 150.046875 -74.75 C 148.992188 -72.300781 147.769531 -71.078125 146.375 -71.078125 C 146.132812 -71.078125 145.722656 -70.144531 145.140625 -68.28125 C 144.554688 -66.414062 144.03125 -64.609375 143.5625 -62.859375 C 143.101562 -61.109375 142.640625 -60.234375 142.171875 -60.234375 L 140.765625 -60.578125 C 140.296875 -60.578125 140.0625 -60.226562 140.0625 -59.53125 C 140.0625 -59.0625 140.117188 -58.59375 140.234375 -58.125 C 140.359375 -57.65625 140.421875 -57.191406 140.421875 -56.734375 C 140.421875 -55.328125 139.601562 -54.566406 137.96875 -54.453125 C 136.332031 -54.335938 135.515625 -53.925781 135.515625 -53.21875 C 135.515625 -52.757812 135.804688 -52.003906 136.390625 -50.953125 C 136.972656 -49.898438 137.265625 -48.789062 137.265625 -47.625 L 136.5625 -45.171875 L 135.171875 -44.828125 L 136.21875 -44.828125 L 136.5625 -44.125 C 136.5625 -43.425781 136.503906 -42.609375 136.390625 -41.671875 C 136.273438 -40.734375 135.75 -40.265625 134.8125 -40.265625 C 133.175781 -40.265625 132.535156 -41.082031 132.890625 -42.71875 C 133.242188 -44.351562 132.601562 -45.171875 130.96875 -45.171875 C 130.726562 -45.171875 130.023438 -44.523438 128.859375 -43.234375 C 127.691406 -41.953125 127.109375 -41.195312 127.109375 -40.96875 C 127.109375 -40.5 127.164062 -39.972656 127.28125 -39.390625 C 127.40625 -38.804688 127.46875 -38.28125 127.46875 -37.8125 C 127.46875 -37.113281 127.234375 -36.765625 126.765625 -36.765625 C 126.523438 -36.765625 126.171875 -36.878906 125.703125 -37.109375 C 125.242188 -37.347656 124.78125 -37.46875 124.3125 -37.46875 C 123.84375 -37.46875 123.609375 -37 123.609375 -36.0625 C 123.609375 -35.363281 123.84375 -34.78125 124.3125 -34.3125 C 124.78125 -33.84375 125.015625 -33.378906 125.015625 -32.921875 C 125.015625 -31.984375 124.3125 -31.515625 122.90625 -31.515625 L 120.8125 -31.515625 C 120.34375 -31.515625 118.878906 -30.113281 116.421875 -27.3125 C 113.972656 -24.507812 112.519531 -21.941406 112.0625 -19.609375 L 111 -19.609375 C 110.769531 -19.609375 110.363281 -18.789062 109.78125 -17.15625 C 109.195312 -15.519531 108.671875 -13.882812 108.203125 -12.25 C 107.734375 -10.625 107.265625 -9.8125 106.796875 -9.8125 L 105.40625 -10.15625 C 104.695312 -10.382812 104.398438 -9.859375 104.515625 -8.578125 C 104.640625 -7.296875 104.117188 -6.65625 102.953125 -6.65625 L 102.59375 -6.296875 C 102.832031 -5.835938 102.953125 -5.375 102.953125 -4.90625 C 102.953125 -3.96875 102.539062 -3.554688 101.71875 -3.671875 C 100.90625 -3.796875 100.5 -3.390625 100.5 -2.453125 C 100.5 0.578125 99.5625 2.910156 97.6875 4.546875 C 95.820312 6.179688 94.773438 8.285156 94.546875 10.859375 L 95.25 11.5625 C 96.414062 11.5625 97 11.207031 97 10.5 L 96.640625 9.109375 L 97.703125 8.75 C 97.703125 9.21875 97.929688 9.453125 98.390625 9.453125 C 98.859375 9.453125 99.09375 10.15625 99.09375 11.5625 C 99.09375 12.488281 98.972656 13.535156 98.734375 14.703125 C 98.503906 15.867188 97.804688 16.453125 96.640625 16.453125 C 95.015625 16.453125 94.203125 15.988281 94.203125 15.0625 C 94.203125 14.59375 94.257812 14.238281 94.375 14 C 94.488281 13.769531 94.546875 13.539062 94.546875 13.3125 C 94.546875 12.84375 94.429688 12.375 94.203125 11.90625 L 93.5 12.609375 L 93.140625 13.3125 C 91.972656 13.3125 90.6875 14.59375 89.28125 17.15625 C 87.882812 19.726562 86.957031 21.597656 86.5 22.765625 C 86.5 22.992188 86.4375 23.164062 86.3125 23.28125 C 86.195312 23.40625 86.140625 23.582031 86.140625 23.8125 C 86.140625 24.039062 86.195312 24.332031 86.3125 24.6875 C 86.4375 25.039062 86.5 25.445312 86.5 25.90625 C 86.5 26.613281 86.203125 26.90625 85.609375 26.78125 C 85.023438 26.664062 84.503906 26.84375 84.046875 27.3125 C 83.804688 28.007812 82.867188 29.929688 81.234375 33.078125 C 79.597656 36.234375 78.429688 37.8125 77.734375 37.8125 C 77.503906 37.8125 77.328125 37.519531 77.203125 36.9375 C 77.085938 36.351562 76.800781 36.0625 76.34375 36.0625 C 75.40625 36.0625 74.46875 37.171875 73.53125 39.390625 C 72.601562 41.609375 71.671875 44.234375 70.734375 47.265625 C 69.796875 50.304688 68.921875 52.9375 68.109375 55.15625 C 67.296875 57.375 66.535156 58.484375 65.828125 58.484375 Z M 306.75 -246.515625 C 306.75 -245.347656 306.28125 -244.765625 305.34375 -244.765625 C 304.414062 -244.765625 303.953125 -245.234375 303.953125 -246.171875 C 303.953125 -246.640625 304.007812 -246.988281 304.125 -247.21875 C 304.238281 -247.457031 304.296875 -247.691406 304.296875 -247.921875 L 305.703125 -247.921875 C 306.398438 -247.921875 306.75 -247.453125 306.75 -246.515625 Z M 270.6875 -246.875 L 270.328125 -246.515625 C 269.160156 -246.753906 268.632812 -246.875 268.75 -246.875 C 268.875 -246.875 268.582031 -247.222656 267.875 -247.921875 L 269.625 -247.921875 C 270.332031 -247.921875 270.6875 -247.570312 270.6875 -246.875 Z M 230.765625 -240.921875 L 230.0625 -239.171875 C 229.832031 -239.171875 229.65625 -239.398438 229.53125 -239.859375 C 229.414062 -240.328125 229.359375 -240.679688 229.359375 -240.921875 L 227.96875 -241.96875 L 229.015625 -241.625 L 229.359375 -243.015625 C 229.597656 -242.785156 229.890625 -242.492188 230.234375 -242.140625 C 230.585938 -241.796875 230.765625 -241.390625 230.765625 -240.921875 Z M 260.171875 -240.5625 C 260.171875 -239.632812 259.585938 -239.171875 258.421875 -239.171875 C 257.492188 -239.171875 257.03125 -239.519531 257.03125 -240.21875 C 257.03125 -241.15625 257.144531 -241.738281 257.375 -241.96875 C 257.601562 -242.195312 258.1875 -242.3125 259.125 -242.3125 C 259.820312 -242.3125 260.171875 -241.726562 260.171875 -240.5625 Z M 255.28125 -238.8125 C 255.28125 -237.414062 254.8125 -236.71875 253.875 -236.71875 C 252.9375 -236.71875 252.46875 -237.179688 252.46875 -238.109375 C 252.46875 -238.578125 252.523438 -239.046875 252.640625 -239.515625 C 252.765625 -239.984375 252.828125 -240.453125 252.828125 -240.921875 L 254.21875 -240.921875 C 254.925781 -240.921875 255.28125 -240.21875 255.28125 -238.8125 Z M 227.96875 -210.453125 L 227.609375 -210.109375 C 226.910156 -210.109375 226.5625 -210.570312 226.5625 -211.5 C 226.5625 -212.195312 227.03125 -212.546875 227.96875 -212.546875 L 227.96875 -216.0625 C 228.425781 -216.0625 228.890625 -216.175781 229.359375 -216.40625 C 229.828125 -216.632812 230.296875 -216.75 230.765625 -216.75 C 231.234375 -216.75 231.46875 -216.515625 231.46875 -216.046875 C 231.46875 -215.585938 231.46875 -215.238281 231.46875 -215 C 231.46875 -214.070312 230.882812 -213.488281 229.71875 -213.25 C 228.550781 -213.019531 227.96875 -212.085938 227.96875 -210.453125 Z M 292.390625 -205.90625 C 292.390625 -204.738281 292.210938 -204.035156 291.859375 -203.796875 C 291.515625 -203.566406 290.757812 -203.453125 289.59375 -203.453125 C 288.894531 -203.453125 288.546875 -204.148438 288.546875 -205.546875 C 288.546875 -206.242188 288.660156 -206.710938 288.890625 -206.953125 C 289.117188 -207.179688 289.46875 -207.296875 289.9375 -207.296875 C 290.644531 -207.296875 291.226562 -207.296875 291.6875 -207.296875 C 292.15625 -207.296875 292.390625 -206.832031 292.390625 -205.90625 Z M 212.203125 -199.953125 C 212.203125 -199.484375 212.144531 -198.894531 212.03125 -198.1875 C 211.914062 -197.488281 211.625 -197.140625 211.15625 -197.140625 C 210.457031 -197.140625 209.640625 -197.429688 208.703125 -198.015625 C 207.765625 -198.597656 207.296875 -199.007812 207.296875 -199.25 C 207.296875 -199.945312 208.347656 -200.53125 210.453125 -201 L 211.859375 -201 C 212.085938 -201 212.203125 -200.648438 212.203125 -199.953125 Z M 284.34375 -189.09375 C 283.875 -188.863281 283.289062 -188.75 282.59375 -188.75 C 281.65625 -188.75 280.660156 -188.921875 279.609375 -189.265625 C 278.554688 -189.617188 278.03125 -190.492188 278.03125 -191.890625 C 278.03125 -193.523438 278.96875 -194.34375 280.84375 -194.34375 C 281.300781 -194.34375 281.820312 -194.285156 282.40625 -194.171875 C 282.988281 -194.054688 283.515625 -194 283.984375 -194 L 283.984375 -193.640625 C 284.453125 -193.410156 284.6875 -192.882812 284.6875 -192.0625 C 284.6875 -191.25 284.6875 -190.609375 284.6875 -190.140625 C 284.6875 -189.671875 284.570312 -189.320312 284.34375 -189.09375 Z M 203.453125 -182.09375 C 202.984375 -182.09375 202.398438 -181.972656 201.703125 -181.734375 C 201.003906 -181.503906 200.421875 -181.390625 199.953125 -181.390625 C 199.242188 -181.390625 198.773438 -181.796875 198.546875 -182.609375 C 198.316406 -183.429688 198.203125 -184.078125 198.203125 -184.546875 C 198.203125 -186.410156 199.132812 -187.34375 201 -187.34375 C 201.226562 -187.34375 201.457031 -187.109375 201.6875 -186.640625 C 201.925781 -186.171875 202.164062 -185.820312 202.40625 -185.59375 L 203.09375 -185.9375 L 203.453125 -184.546875 Z M 289.59375 -180.34375 C 289.59375 -178.707031 288.773438 -177.890625 287.140625 -177.890625 C 285.742188 -177.890625 285.046875 -178.820312 285.046875 -180.6875 C 285.046875 -181.382812 285.160156 -181.851562 285.390625 -182.09375 C 285.617188 -182.320312 285.96875 -182.4375 286.4375 -182.4375 C 288.539062 -182.4375 289.59375 -181.738281 289.59375 -180.34375 Z M 184.546875 -162.484375 L 184.1875 -162.828125 L 184.546875 -162.828125 L 183.140625 -164.578125 L 183.140625 -164.234375 C 183.140625 -164.460938 183.082031 -164.632812 182.96875 -164.75 C 182.851562 -164.875 182.796875 -165.050781 182.796875 -165.28125 C 183.960938 -165.507812 184.601562 -165.738281 184.71875 -165.96875 C 184.832031 -166.207031 185.003906 -166.328125 185.234375 -166.328125 L 186.296875 -166.328125 C 186.753906 -166.328125 186.984375 -165.976562 186.984375 -165.28125 C 186.984375 -164.8125 186.75 -164.226562 186.28125 -163.53125 C 185.820312 -162.832031 185.242188 -162.484375 184.546875 -162.484375 Z M 154.078125 -153.375 C 154.078125 -152.207031 153.375 -151.625 151.96875 -151.625 C 150.570312 -151.625 149.875 -152.09375 149.875 -153.03125 C 149.875 -153.257812 149.875 -153.609375 149.875 -154.078125 C 149.875 -154.546875 149.988281 -154.78125 150.21875 -154.78125 C 150.6875 -155.007812 151.503906 -155.125 152.671875 -155.125 C 153.609375 -155.125 154.078125 -154.539062 154.078125 -153.375 Z M 221.65625 -145.671875 C 221.65625 -144.734375 220.835938 -144.265625 219.203125 -144.265625 C 218.035156 -144.265625 217.453125 -145.316406 217.453125 -147.421875 L 217.453125 -148.125 C 217.453125 -148.59375 217.800781 -149 218.5 -149.34375 C 219.207031 -149.695312 219.796875 -149.875 220.265625 -149.875 C 220.492188 -149.875 220.664062 -149.8125 220.78125 -149.6875 C 220.894531 -149.570312 220.953125 -149.515625 220.953125 -149.515625 C 221.421875 -148.816406 221.65625 -147.535156 221.65625 -145.671875 Z M 214.3125 -139.71875 L 213.953125 -140.0625 C 213.015625 -141 212.546875 -142.171875 212.546875 -143.578125 C 212.546875 -145.441406 213.484375 -146.375 215.359375 -146.375 C 216.753906 -146.375 217.453125 -145.789062 217.453125 -144.625 L 217.453125 -142.171875 C 216.285156 -140.535156 215.238281 -139.71875 214.3125 -139.71875 Z M 208 -142.515625 L 207.65625 -143.921875 C 207.65625 -144.617188 208.003906 -144.96875 208.703125 -144.96875 L 209.40625 -143.921875 L 210.453125 -143.578125 C 209.984375 -143.109375 209.570312 -142.929688 209.21875 -143.046875 C 208.875 -143.160156 208.46875 -142.984375 208 -142.515625 Z M 160.375 -138.3125 C 160.375 -137.851562 160.023438 -137.625 159.328125 -137.625 C 158.390625 -137.625 157.921875 -138.320312 157.921875 -139.71875 C 157.921875 -140.414062 158.15625 -141.234375 158.625 -142.171875 L 159.328125 -141.46875 C 159.328125 -140.53125 159.441406 -140.003906 159.671875 -139.890625 C 159.910156 -139.773438 160.144531 -139.25 160.375 -138.3125 Z M 150.21875 -139.015625 C 150.21875 -138.085938 149.753906 -137.625 148.828125 -137.625 C 147.191406 -137.625 146.375 -138.671875 146.375 -140.765625 C 146.375 -141.460938 146.488281 -141.8125 146.71875 -141.8125 L 148.125 -141.8125 C 149.519531 -141.8125 150.21875 -140.878906 150.21875 -139.015625 Z M 158.984375 -129.90625 L 157.921875 -130.265625 C 157.921875 -130.734375 157.976562 -131.140625 158.09375 -131.484375 C 158.21875 -131.835938 158.28125 -132.128906 158.28125 -132.359375 L 160.734375 -132.359375 C 161.660156 -132.359375 162.125 -132.128906 162.125 -131.671875 L 161.421875 -130.96875 L 160.375 -131.3125 C 160.144531 -131.082031 159.96875 -130.789062 159.84375 -130.4375 C 159.726562 -130.082031 159.441406 -129.90625 158.984375 -129.90625 Z M 34.3125 -113.109375 C 34.3125 -112.640625 33.960938 -112.113281 33.265625 -111.53125 C 32.566406 -110.945312 31.984375 -110.65625 31.515625 -110.65625 C 31.046875 -110.65625 30.578125 -111.0625 30.109375 -111.875 C 29.648438 -112.695312 29.421875 -113.457031 29.421875 -114.15625 C 29.421875 -114.625 29.535156 -114.972656 29.765625 -115.203125 L 30.109375 -115.203125 C 30.578125 -115.203125 31.394531 -114.96875 32.5625 -114.5 C 33.726562 -114.039062 34.3125 -113.578125 34.3125 -113.109375 Z M 45.171875 -107.15625 C 43.773438 -106.6875 42.609375 -106.453125 41.671875 -106.453125 C 39.097656 -106.453125 37.8125 -107.382812 37.8125 -109.25 L 39.21875 -109.25 L 38.875 -109.953125 C 39.332031 -110.179688 39.910156 -110.296875 40.609375 -110.296875 C 41.316406 -110.296875 41.785156 -110.296875 42.015625 -110.296875 L 42.71875 -110.65625 L 42.71875 -111.703125 C 43.414062 -111.234375 44.171875 -111.054688 44.984375 -111.171875 C 45.804688 -111.296875 46.21875 -110.65625 46.21875 -109.25 C 46.21875 -109.019531 46.039062 -108.785156 45.6875 -108.546875 C 45.34375 -108.316406 45.054688 -108.085938 44.828125 -107.859375 Z M 51.828125 -104.703125 C 51.828125 -102.835938 50.894531 -101.90625 49.03125 -101.90625 C 48.5625 -101.90625 47.859375 -101.960938 46.921875 -102.078125 C 45.984375 -102.191406 45.515625 -102.71875 45.515625 -103.65625 C 45.515625 -104.113281 45.628906 -104.632812 45.859375 -105.21875 C 46.097656 -105.8125 46.335938 -106.109375 46.578125 -106.109375 C 47.035156 -106.109375 47.378906 -106.046875 47.609375 -105.921875 C 47.847656 -105.804688 48.085938 -105.75 48.328125 -105.75 L 48.328125 -106.796875 C 49.023438 -106.796875 49.722656 -106.738281 50.421875 -106.625 C 51.117188 -106.507812 51.585938 -106.21875 51.828125 -105.75 Z M 178.59375 -101.203125 L 179.984375 -101.546875 L 179.984375 -102.59375 C 180.453125 -103.0625 180.800781 -103.296875 181.03125 -103.296875 C 181.269531 -103.296875 181.390625 -103.644531 181.390625 -104.34375 L 180.6875 -105.40625 C 179.75 -105.40625 179.164062 -105.285156 178.9375 -105.046875 C 178 -104.117188 177.53125 -103.1875 177.53125 -102.25 C 177.53125 -101.550781 177.882812 -101.203125 178.59375 -101.203125 Z M 203.09375 -104 C 203.09375 -101.894531 202.160156 -100.84375 200.296875 -100.84375 C 199.828125 -100.84375 199.179688 -100.957031 198.359375 -101.1875 C 197.546875 -101.425781 197.140625 -101.894531 197.140625 -102.59375 C 197.140625 -103.53125 197.664062 -104.171875 198.71875 -104.515625 C 199.769531 -104.867188 200.644531 -105.046875 201.34375 -105.046875 L 202.40625 -105.046875 C 202.863281 -104.578125 203.09375 -104.226562 203.09375 -104 Z M 214.65625 -102.25 L 213.953125 -103.296875 L 213.953125 -105.046875 L 214.3125 -105.046875 C 215.007812 -104.816406 215.296875 -104.523438 215.171875 -104.171875 C 215.054688 -103.828125 215.117188 -103.300781 215.359375 -102.59375 Z M 37.46875 -95.25 C 37.46875 -94.3125 37.175781 -93.257812 36.59375 -92.09375 C 36.007812 -90.925781 35.132812 -90.34375 33.96875 -90.34375 C 32.5625 -90.34375 31.507812 -90.8125 30.8125 -91.75 C 30.582031 -91.976562 30.46875 -92.441406 30.46875 -93.140625 C 30.46875 -94.078125 30.640625 -95.128906 30.984375 -96.296875 C 31.335938 -97.460938 32.210938 -98.046875 33.609375 -98.046875 C 34.316406 -98.046875 35.132812 -97.8125 36.0625 -97.34375 C 37 -96.875 37.46875 -96.175781 37.46875 -95.25 Z M 174.734375 -80.890625 C 174.734375 -80.421875 174.265625 -79.835938 173.328125 -79.140625 C 172.398438 -78.441406 171.703125 -78.09375 171.234375 -78.09375 C 170.765625 -78.09375 170.117188 -78.148438 169.296875 -78.265625 C 168.484375 -78.378906 167.84375 -78.671875 167.375 -79.140625 C 167.144531 -79.367188 167.03125 -79.953125 167.03125 -80.890625 C 167.03125 -84.390625 168.082031 -86.140625 170.1875 -86.140625 L 171.9375 -86.140625 L 171.9375 -85.09375 L 173.328125 -85.09375 C 173.566406 -84.851562 173.859375 -84.265625 174.203125 -83.328125 C 174.554688 -82.398438 174.734375 -81.585938 174.734375 -80.890625 Z M 105.046875 -75.984375 L 104 -75.984375 C 104 -76.921875 103.878906 -77.5625 103.640625 -77.90625 C 103.410156 -78.257812 103.179688 -78.785156 102.953125 -79.484375 L 104 -79.484375 L 104 -80.546875 L 107.5 -80.546875 C 107.269531 -79.609375 106.800781 -78.90625 106.09375 -78.4375 C 105.394531 -77.96875 105.046875 -77.148438 105.046875 -75.984375 Z M 155.125 -63.734375 C 155.125 -61.867188 154.425781 -60.703125 153.03125 -60.234375 C 152.5625 -60.234375 152.328125 -60.816406 152.328125 -61.984375 C 152.328125 -62.453125 152.5 -62.976562 152.84375 -63.5625 C 153.195312 -64.144531 153.488281 -64.664062 153.71875 -65.125 L 154.421875 -65.125 Z M 155.46875 -50.78125 L 154.78125 -51.46875 C 154.78125 -52.632812 154.601562 -53.21875 154.25 -53.21875 C 153.894531 -53.21875 153.71875 -53.6875 153.71875 -54.625 C 153.71875 -54.863281 153.953125 -54.984375 154.421875 -54.984375 C 155.828125 -54.984375 156.53125 -54.28125 156.53125 -52.875 L 156.53125 -52.53125 C 156.53125 -51.363281 156.175781 -50.78125 155.46875 -50.78125 Z M 130.609375 -48.671875 C 130.609375 -47.972656 130.726562 -47.625 130.96875 -47.625 C 132.132812 -47.625 133.125 -47.738281 133.9375 -47.96875 C 134.757812 -48.207031 135.171875 -49.144531 135.171875 -50.78125 C 135.171875 -51.945312 134.585938 -52.53125 133.421875 -52.53125 C 131.546875 -52.53125 130.609375 -51.242188 130.609375 -48.671875 Z M 80.546875 -19.609375 L 79.84375 -19.265625 C 79.375 -19.265625 78.960938 -19.960938 78.609375 -21.359375 C 78.265625 -22.765625 78.09375 -23.695312 78.09375 -24.15625 C 78.09375 -25.789062 78.675781 -26.609375 79.84375 -26.609375 C 80.3125 -26.609375 80.835938 -26.429688 81.421875 -26.078125 C 82.003906 -25.734375 82.523438 -25.445312 82.984375 -25.21875 L 82.984375 -22.765625 C 82.984375 -21.359375 82.578125 -20.828125 81.765625 -21.171875 C 80.953125 -21.523438 80.546875 -21.003906 80.546875 -19.609375 Z M 86.5 -19.609375 C 86.257812 -19.609375 86.140625 -19.550781 86.140625 -19.4375 C 86.140625 -19.320312 86.023438 -19.265625 85.796875 -19.265625 C 85.085938 -19.265625 84.734375 -19.847656 84.734375 -21.015625 C 84.734375 -22.179688 84.734375 -23 84.734375 -23.46875 C 84.734375 -24.164062 84.851562 -24.75 85.09375 -25.21875 C 85.09375 -25.445312 85.441406 -25.5625 86.140625 -25.5625 C 88.242188 -25.5625 89.296875 -24.976562 89.296875 -23.8125 C 89.296875 -22.175781 88.769531 -21.414062 87.71875 -21.53125 C 86.664062 -21.644531 86.140625 -21.238281 86.140625 -20.3125 Z M 133.765625 -11.203125 C 133.765625 -10.734375 133.585938 -10.207031 133.234375 -9.625 C 132.890625 -9.039062 132.484375 -8.867188 132.015625 -9.109375 C 130.847656 -9.109375 130.03125 -9.222656 129.5625 -9.453125 C 128.863281 -10.148438 128.515625 -11.203125 128.515625 -12.609375 L 128.859375 -13.3125 C 129.097656 -13.070312 129.566406 -12.953125 130.265625 -12.953125 L 130.609375 -14 L 132.015625 -14 L 131.671875 -13.3125 C 131.671875 -12.84375 132.019531 -12.546875 132.71875 -12.421875 C 133.414062 -12.304688 133.765625 -11.898438 133.765625 -11.203125 Z M 74.59375 -10.5 C 74.59375 -9.101562 74.414062 -8.285156 74.0625 -8.046875 C 73.707031 -7.816406 72.832031 -7.703125 71.4375 -7.703125 C 70.96875 -7.703125 70.734375 -8.40625 70.734375 -9.8125 C 70.734375 -10.507812 70.847656 -10.972656 71.078125 -11.203125 C 71.316406 -11.441406 71.671875 -11.5625 72.140625 -11.5625 C 73.773438 -11.5625 74.59375 -11.207031 74.59375 -10.5 Z M 120.109375 -1.40625 L 120.109375 0 C 119.410156 -0.46875 119.117188 -0.816406 119.234375 -1.046875 C 119.347656 -1.285156 119.289062 -1.753906 119.0625 -2.453125 L 120.8125 -2.453125 L 121.515625 -2.09375 C 121.515625 -1.632812 121.394531 -1.285156 121.15625 -1.046875 Z M -10.15625 35.375 C -11.320312 36.539062 -12.488281 37.125 -13.65625 37.125 C -14.125 37.125 -14.359375 37.003906 -14.359375 36.765625 C -14.585938 36.535156 -14.703125 36.1875 -14.703125 35.71875 C -14.703125 33.851562 -13.769531 32.921875 -11.90625 32.921875 C -11.4375 32.921875 -10.910156 32.976562 -10.328125 33.09375 C -9.742188 33.207031 -9.453125 33.5 -9.453125 33.96875 Z M 22.40625 40.265625 C 22.40625 40.035156 21.878906 40.445312 20.828125 41.5 C 19.785156 42.550781 19.03125 43.078125 18.5625 43.078125 C 17.625 43.078125 17.035156 42.664062 16.796875 41.84375 C 16.566406 41.03125 16.453125 40.15625 16.453125 39.21875 C 16.453125 38.75 16.6875 38.28125 17.15625 37.8125 C 17.394531 37.8125 17.6875 37.753906 18.03125 37.640625 C 18.382812 37.523438 18.675781 37.46875 18.90625 37.46875 C 21.238281 37.46875 22.40625 38.398438 22.40625 40.265625 Z M 67.9375 77.03125 C 67.9375 77.5 67.703125 78.203125 67.234375 79.140625 C 66.765625 80.078125 66.296875 80.546875 65.828125 80.546875 C 65.128906 80.546875 64.78125 80.019531 64.78125 78.96875 C 64.78125 77.914062 64.78125 77.269531 64.78125 77.03125 C 64.78125 76.332031 64.894531 75.75 65.125 75.28125 C 65.125 75.050781 65.359375 74.9375 65.828125 74.9375 C 67.234375 74.9375 67.9375 75.632812 67.9375 77.03125 Z M 67.9375 77.03125 "/></g></g></g><g fill="#ffde59" fill-opacity="1"><g transform="translate(201.493231, 258.305197)"><g><path d="M 83.34375 -29.765625 C 83.101562 -29.765625 82.867188 -29.878906 82.640625 -30.109375 C 82.410156 -29.410156 81.828125 -28.535156 80.890625 -27.484375 C 79.953125 -26.429688 79.484375 -24.859375 79.484375 -22.765625 L 84.390625 -22.765625 C 84.390625 -22.054688 83.921875 -21.703125 82.984375 -21.703125 L 81.59375 -21.703125 C 81.59375 -21.003906 81.820312 -20.242188 82.28125 -19.421875 C 82.75 -18.609375 82.984375 -17.972656 82.984375 -17.515625 C 82.523438 -16.578125 82.003906 -15.347656 81.421875 -13.828125 C 80.835938 -12.316406 80.546875 -11.09375 80.546875 -10.15625 C 80.546875 -9.21875 80.953125 -8.804688 81.765625 -8.921875 C 82.578125 -9.046875 82.984375 -8.640625 82.984375 -7.703125 C 82.984375 -7.472656 82.867188 -7.125 82.640625 -6.65625 C 82.410156 -6.1875 82.296875 -5.71875 82.296875 -5.25 C 82.296875 -5.71875 82.644531 -4.957031 83.34375 -2.96875 C 84.039062 -0.988281 84.503906 0.46875 84.734375 1.40625 L 80.890625 1.40625 C 80.890625 3.269531 80.769531 5.25 80.53125 7.34375 C 80.300781 9.445312 80.1875 11.4375 80.1875 13.3125 C 80.1875 14.9375 80.476562 17.207031 81.0625 20.125 C 81.644531 23.050781 82.867188 24.515625 84.734375 24.515625 C 87.078125 24.515625 89.472656 23.695312 91.921875 22.0625 C 94.367188 20.425781 96.46875 18.671875 98.21875 16.796875 C 99.96875 14.929688 100.84375 13.648438 100.84375 12.953125 C 100.84375 12.484375 100.609375 12.25 100.140625 12.25 C 99.679688 12.25 99.453125 12.132812 99.453125 11.90625 C 101.546875 7.707031 104.109375 3.738281 107.140625 0 C 110.179688 -3.738281 112.753906 -7.707031 114.859375 -11.90625 C 115.085938 -11.90625 115.375 -11.726562 115.71875 -11.375 C 116.070312 -11.03125 116.367188 -10.859375 116.609375 -10.859375 L 117.3125 -10.859375 C 117.070312 -9.921875 116.71875 -8.8125 116.25 -7.53125 C 115.789062 -6.25 115.09375 -5.253906 114.15625 -4.546875 L 113.8125 -4.203125 C 113.8125 -3.972656 114.101562 -3.796875 114.6875 -3.671875 C 115.269531 -3.554688 115.5625 -3.148438 115.5625 -2.453125 C 115.5625 0.578125 114.976562 2.675781 113.8125 3.84375 C 112.644531 5.019531 111.414062 5.835938 110.125 6.296875 C 108.84375 6.765625 108.203125 7.703125 108.203125 9.109375 L 108.203125 9.453125 C 108.671875 9.453125 109.078125 9.332031 109.421875 9.09375 C 109.773438 8.863281 110.066406 8.75 110.296875 8.75 C 110.535156 8.75 110.65625 8.984375 110.65625 9.453125 C 110.65625 12.722656 109.488281 15.347656 107.15625 17.328125 C 104.820312 19.316406 102.367188 21.066406 99.796875 22.578125 C 97.234375 24.097656 95.484375 25.789062 94.546875 27.65625 C 94.078125 28.59375 92.96875 29.585938 91.21875 30.640625 C 89.46875 31.691406 87.660156 32.21875 85.796875 32.21875 C 85.328125 32.21875 83.570312 31.515625 80.53125 30.109375 C 77.5 28.710938 75.984375 27.195312 75.984375 25.5625 C 75.984375 25.09375 76.15625 24.566406 76.5 23.984375 C 76.851562 23.398438 77.03125 22.992188 77.03125 22.765625 C 77.03125 23.234375 76.503906 22.648438 75.453125 21.015625 C 74.410156 19.378906 73.769531 18.210938 73.53125 17.515625 L 72.140625 17.859375 C 72.140625 17.390625 72.253906 16.863281 72.484375 16.28125 C 72.710938 15.695312 72.828125 15.289062 72.828125 15.0625 C 72.828125 13.894531 72.359375 13.425781 71.421875 13.65625 C 70.492188 13.882812 70.03125 13.535156 70.03125 12.609375 C 70.03125 12.140625 70.085938 11.726562 70.203125 11.375 C 70.328125 11.03125 70.390625 10.738281 70.390625 10.5 L 69.328125 10.5 C 69.328125 10.039062 69.441406 9.457031 69.671875 8.75 C 69.910156 8.050781 70.03125 7.351562 70.03125 6.65625 C 70.03125 6.1875 69.5625 5.484375 68.625 4.546875 C 67.695312 3.617188 67.234375 2.6875 67.234375 1.75 C 67.234375 1.050781 67.582031 0.296875 68.28125 -0.515625 C 68.976562 -1.335938 69.328125 -2.21875 69.328125 -3.15625 C 69.328125 -4.320312 68.921875 -4.785156 68.109375 -4.546875 C 67.296875 -4.316406 66.890625 -4.671875 66.890625 -5.609375 C 66.890625 -6.066406 67.0625 -6.472656 67.40625 -6.828125 C 67.757812 -7.179688 68.050781 -7.472656 68.28125 -7.703125 L 67.234375 -7.703125 C 67.234375 -8.171875 67.347656 -8.640625 67.578125 -9.109375 C 67.816406 -9.578125 67.9375 -9.925781 67.9375 -10.15625 C 67.9375 -11.320312 67.582031 -11.90625 66.875 -11.90625 C 66.175781 -11.90625 65.828125 -12.140625 65.828125 -12.609375 C 65.828125 -14.242188 65.941406 -15.757812 66.171875 -17.15625 C 66.410156 -18.5625 66.53125 -19.960938 66.53125 -21.359375 C 66.53125 -24.628906 65.421875 -26.265625 63.203125 -26.265625 C 60.984375 -26.265625 59.875 -26.726562 59.875 -27.65625 C 59.875 -28.832031 60.109375 -29.421875 60.578125 -29.421875 C 61.515625 -29.421875 62.210938 -29.1875 62.671875 -28.71875 C 63.140625 -28.25 63.609375 -28.015625 64.078125 -28.015625 C 65.242188 -28.015625 65.828125 -28.597656 65.828125 -29.765625 C 65.828125 -30.703125 65.648438 -31.691406 65.296875 -32.734375 C 64.953125 -33.785156 64.429688 -34.3125 63.734375 -34.3125 C 63.265625 -34.3125 63.03125 -34.078125 63.03125 -33.609375 L 63.03125 -32.5625 C 63.03125 -32.332031 62.914062 -32.21875 62.6875 -32.21875 C 62.445312 -32.21875 62.328125 -32.800781 62.328125 -33.96875 C 62.328125 -34.90625 62.851562 -35.488281 63.90625 -35.71875 C 64.957031 -35.945312 65.484375 -36.878906 65.484375 -38.515625 C 65.484375 -38.984375 65.191406 -39.21875 64.609375 -39.21875 C 64.023438 -39.21875 63.5 -39.21875 63.03125 -39.21875 C 61.632812 -39.21875 60.117188 -38.050781 58.484375 -35.71875 C 56.847656 -33.382812 55.382812 -31.050781 54.09375 -28.71875 C 52.8125 -26.382812 51.820312 -25.21875 51.125 -25.21875 C 50.425781 -25.21875 50.015625 -25.507812 49.890625 -26.09375 C 49.773438 -26.675781 49.488281 -26.96875 49.03125 -26.96875 C 47.15625 -26.96875 44.992188 -25.625 42.546875 -22.9375 C 40.097656 -20.25 37.765625 -17.445312 35.546875 -14.53125 C 33.328125 -11.613281 31.632812 -9.6875 30.46875 -8.75 C 28.59375 -7.113281 25.4375 -4.3125 21 -0.34375 C 16.570312 3.625 12.722656 7.238281 9.453125 10.5 C 9.453125 10.96875 9.6875 11.492188 10.15625 12.078125 C 10.625 12.660156 10.859375 13.1875 10.859375 13.65625 C 10.859375 13.882812 10.390625 14.175781 9.453125 14.53125 C 8.515625 14.882812 7.582031 15.175781 6.65625 15.40625 C 5.488281 15.40625 4.90625 14.9375 4.90625 14 C 4.90625 12.832031 5.132812 11.957031 5.59375 11.375 C 6.0625 10.789062 6.296875 10.269531 6.296875 9.8125 C 6.296875 9.570312 5.832031 9.453125 4.90625 9.453125 C 3.738281 9.453125 2.921875 10.035156 2.453125 11.203125 C 1.984375 12.367188 1.75 13.535156 1.75 14.703125 L 1.75 16.8125 C 2.914062 17.507812 3.5 18.148438 3.5 18.734375 C 3.5 19.316406 3.617188 20.304688 3.859375 21.703125 L 2.453125 21.703125 L 2.796875 20.3125 C 1.628906 20.539062 0.171875 20.65625 -1.578125 20.65625 C -3.328125 20.65625 -4.203125 21.707031 -4.203125 23.8125 C -4.203125 24.28125 -3.96875 25.332031 -3.5 26.96875 C -3.269531 27.894531 -3.15625 28.59375 -3.15625 29.0625 L -4.203125 29.0625 C -4.203125 28.832031 -4.082031 28.484375 -3.84375 28.015625 C -3.613281 27.546875 -3.5 27.195312 -3.5 26.96875 C -3.738281 26.726562 -4.085938 26.609375 -4.546875 26.609375 C -6.878906 26.609375 -8.6875 27.660156 -9.96875 29.765625 C -11.257812 31.867188 -12.722656 33.382812 -14.359375 34.3125 C -16.921875 35.71875 -18.898438 37.9375 -20.296875 40.96875 C -21.703125 44 -23.101562 46.914062 -24.5 49.71875 C -25.90625 52.519531 -28.007812 54.503906 -30.8125 55.671875 C -32.445312 56.378906 -33.03125 57.140625 -32.5625 57.953125 C -32.09375 58.765625 -33.257812 59.757812 -36.0625 60.9375 C -38.164062 61.863281 -39.566406 62.910156 -40.265625 64.078125 C -40.960938 65.242188 -41.546875 67.113281 -42.015625 69.6875 C -42.015625 69.914062 -41.78125 70.085938 -41.3125 70.203125 C -40.851562 70.328125 -40.625 70.503906 -40.625 70.734375 C -40.625 72.128906 -41.847656 73.351562 -44.296875 74.40625 C -46.742188 75.457031 -48.550781 75.984375 -49.71875 75.984375 L -50.78125 72.140625 C -47.976562 71.203125 -46.691406 69.566406 -46.921875 67.234375 C -47.148438 64.898438 -46.453125 62.914062 -44.828125 61.28125 C -38.753906 55.207031 -34.140625 50.1875 -30.984375 46.21875 C -27.835938 42.25 -26.265625 40.148438 -26.265625 39.921875 L -26.609375 37.46875 C -26.609375 36.769531 -25.789062 35.546875 -24.15625 33.796875 C -22.519531 32.046875 -20.828125 30.351562 -19.078125 28.71875 C -17.328125 27.082031 -16.335938 26.144531 -16.109375 25.90625 C -11.671875 19.601562 -7.582031 13.535156 -3.84375 7.703125 C -0.113281 1.867188 3.265625 -2.914062 6.296875 -6.65625 C 8.171875 -9.21875 10.273438 -11.550781 12.609375 -13.65625 C 14.941406 -15.757812 17.273438 -17.976562 19.609375 -20.3125 C 22.640625 -22.875 26.023438 -27.128906 29.765625 -33.078125 C 33.503906 -39.035156 37.820312 -44 42.71875 -47.96875 C 42.957031 -48.207031 43.890625 -49.316406 45.515625 -51.296875 C 47.148438 -53.285156 49.019531 -55.503906 51.125 -57.953125 C 53.226562 -60.398438 54.976562 -62.554688 56.375 -64.421875 C 57.78125 -66.296875 58.25 -67.234375 57.78125 -67.234375 C 58.25 -67.234375 58.65625 -67 59 -66.53125 C 59.351562 -66.0625 59.644531 -65.828125 59.875 -65.828125 C 60.34375 -65.828125 60.691406 -66.234375 60.921875 -67.046875 C 61.160156 -67.867188 61.28125 -68.398438 61.28125 -68.640625 C 61.28125 -69.097656 61.046875 -69.796875 60.578125 -70.734375 C 59.640625 -72.128906 59.113281 -74.578125 59 -78.078125 C 58.882812 -81.585938 58.242188 -83.34375 57.078125 -83.34375 C 56.847656 -83.34375 56.671875 -83.28125 56.546875 -83.15625 C 56.429688 -83.039062 56.257812 -82.984375 56.03125 -82.984375 C 55.789062 -82.984375 55.671875 -83.21875 55.671875 -83.6875 C 55.671875 -84.15625 56.078125 -84.679688 56.890625 -85.265625 C 57.710938 -85.847656 58.242188 -86.257812 58.484375 -86.5 L 58.484375 -88.9375 L 57.421875 -88.59375 C 57.421875 -89.53125 57.535156 -90.519531 57.765625 -91.5625 C 58.003906 -92.613281 58.125 -93.609375 58.125 -94.546875 C 58.125 -96.179688 57.65625 -97 56.71875 -97 C 55.789062 -97 55.328125 -97.460938 55.328125 -98.390625 C 55.328125 -99.566406 55.441406 -100.738281 55.671875 -101.90625 C 55.910156 -103.070312 56.03125 -104.472656 56.03125 -106.109375 C 56.03125 -107.972656 54.628906 -108.90625 51.828125 -108.90625 C 49.492188 -108.90625 48.035156 -107.96875 47.453125 -106.09375 C 46.867188 -104.226562 46.515625 -102.363281 46.390625 -100.5 C 46.273438 -98.632812 45.867188 -97.703125 45.171875 -97.703125 C 44.941406 -97.703125 44.648438 -98.457031 44.296875 -99.96875 C 43.941406 -101.488281 43.765625 -102.597656 43.765625 -103.296875 C 43.765625 -105.867188 44.171875 -108.492188 44.984375 -111.171875 C 45.804688 -113.859375 46.335938 -116.367188 46.578125 -118.703125 L 45.515625 -118.703125 C 45.515625 -119.410156 45.628906 -120.054688 45.859375 -120.640625 C 46.097656 -121.222656 46.21875 -121.742188 46.21875 -122.203125 C 46.21875 -121.972656 45.691406 -123.257812 44.640625 -126.0625 C 43.597656 -128.863281 43.078125 -132.128906 43.078125 -135.859375 C 43.078125 -138.429688 45.175781 -140.765625 49.375 -142.859375 C 53.570312 -144.960938 56.835938 -146.832031 59.171875 -148.46875 C 61.046875 -149.875 62.332031 -150.578125 63.03125 -150.578125 C 63.257812 -150.578125 63.609375 -150.34375 64.078125 -149.875 C 63.847656 -150.101562 64.664062 -149.285156 66.53125 -147.421875 C 68.394531 -145.554688 69.097656 -144.625 68.640625 -144.625 C 69.097656 -144.625 69.503906 -144.738281 69.859375 -144.96875 C 70.210938 -145.207031 70.503906 -145.328125 70.734375 -145.328125 C 71.203125 -145.328125 71.84375 -144.21875 72.65625 -142 C 73.476562 -139.78125 73.890625 -138.320312 73.890625 -137.625 C 73.890625 -135.988281 73.1875 -134.289062 71.78125 -132.53125 C 70.382812 -130.78125 69.6875 -129.09375 69.6875 -127.46875 C 69.6875 -126.757812 69.921875 -126.175781 70.390625 -125.71875 L 76.34375 -118.015625 C 76.34375 -117.773438 76.050781 -117.304688 75.46875 -116.609375 C 74.882812 -115.910156 74.472656 -115.328125 74.234375 -114.859375 L 75.640625 -114.859375 C 75.640625 -113.921875 75.226562 -112.75 74.40625 -111.34375 C 73.59375 -109.945312 73.1875 -108.429688 73.1875 -106.796875 C 73.1875 -105.867188 73.421875 -105.34375 73.890625 -105.21875 C 74.359375 -105.101562 74.59375 -104.226562 74.59375 -102.59375 L 75.640625 -102.953125 C 75.640625 -102.015625 75.578125 -101.195312 75.453125 -100.5 C 75.335938 -99.800781 75.28125 -98.984375 75.28125 -98.046875 L 76.34375 -98.046875 C 76.34375 -97.347656 76.28125 -96.707031 76.15625 -96.125 C 76.039062 -95.539062 75.984375 -94.898438 75.984375 -94.203125 C 75.984375 -93.035156 76.332031 -92.453125 77.03125 -92.453125 C 77.738281 -92.453125 78.09375 -91.632812 78.09375 -90 C 78.09375 -89.289062 77.679688 -88.410156 76.859375 -87.359375 C 76.046875 -86.316406 75.640625 -85.5625 75.640625 -85.09375 C 75.640625 -84.851562 75.875 -84.734375 76.34375 -84.734375 C 79.375 -84.734375 81.414062 -85.316406 82.46875 -86.484375 C 83.519531 -87.660156 84.335938 -88.890625 84.921875 -90.171875 C 85.503906 -91.453125 86.613281 -92.210938 88.25 -92.453125 C 88.945312 -92.679688 89.9375 -93.90625 91.21875 -96.125 C 92.5 -98.34375 93.492188 -99.453125 94.203125 -99.453125 C 95.128906 -99.453125 96.117188 -100.328125 97.171875 -102.078125 C 98.222656 -103.828125 99.332031 -105.632812 100.5 -107.5 C 101.664062 -109.363281 102.597656 -110.53125 103.296875 -111 C 108.429688 -114.269531 112.164062 -116.601562 114.5 -118 C 116.84375 -119.40625 119.53125 -121.976562 122.5625 -125.71875 C 124.664062 -128.507812 127 -130.957031 129.5625 -133.0625 C 132.132812 -135.164062 134.703125 -137.269531 137.265625 -139.375 C 137.035156 -140.539062 136.742188 -141.585938 136.390625 -142.515625 C 136.035156 -143.453125 135.742188 -144.390625 135.515625 -145.328125 L 139.015625 -145.328125 C 139.015625 -145.085938 138.894531 -144.789062 138.65625 -144.4375 C 138.425781 -144.09375 138.3125 -143.6875 138.3125 -143.21875 C 138.3125 -143.21875 138.3125 -143.160156 138.3125 -143.046875 C 138.3125 -142.929688 138.429688 -142.875 138.671875 -142.875 C 140.066406 -142.875 141.582031 -143.921875 143.21875 -146.015625 C 144.851562 -148.117188 146.71875 -150.21875 148.8125 -152.3125 C 150.914062 -154.414062 153.253906 -155.585938 155.828125 -155.828125 L 155.828125 -155.46875 C 155.828125 -155.238281 155.707031 -154.945312 155.46875 -154.59375 C 155.238281 -154.25 155.125 -153.957031 155.125 -153.71875 C 155.125 -153.488281 155.179688 -153.375 155.296875 -153.375 C 155.410156 -153.375 155.46875 -153.375 155.46875 -153.375 C 158.269531 -152.4375 160.894531 -150.625 163.34375 -147.9375 C 165.800781 -145.257812 167.03125 -142.519531 167.03125 -139.71875 C 167.03125 -138.78125 166.738281 -137.785156 166.15625 -136.734375 C 165.570312 -135.691406 164.695312 -135.171875 163.53125 -135.171875 C 162.59375 -135.171875 161.597656 -135.285156 160.546875 -135.515625 C 159.503906 -135.742188 158.515625 -135.859375 157.578125 -135.859375 C 155.242188 -135.859375 154.078125 -135.046875 154.078125 -133.421875 C 154.078125 -133.179688 154.132812 -132.882812 154.25 -132.53125 C 154.363281 -132.1875 154.421875 -131.78125 154.421875 -131.3125 C 154.421875 -130.613281 154.070312 -130.265625 153.375 -130.265625 C 148.9375 -130.265625 145.722656 -129.097656 143.734375 -126.765625 C 141.753906 -124.429688 139.945312 -122.910156 138.3125 -122.203125 C 137.613281 -121.972656 136.5625 -120.457031 135.15625 -117.65625 C 133.757812 -114.851562 132.359375 -112.164062 130.953125 -109.59375 C 129.554688 -107.03125 128.394531 -105.75 127.46875 -105.75 C 127 -105.75 126.472656 -105.863281 125.890625 -106.09375 C 125.304688 -106.332031 124.78125 -106.453125 124.3125 -106.453125 C 123.375 -106.453125 122.90625 -106.101562 122.90625 -105.40625 C 122.90625 -104.695312 123.375 -103.992188 124.3125 -103.296875 C 125.25 -102.597656 125.71875 -102.015625 125.71875 -101.546875 C 125.71875 -102.015625 125.070312 -101.601562 123.78125 -100.3125 C 122.5 -99.03125 121.21875 -97.570312 119.9375 -95.9375 C 118.65625 -94.3125 117.78125 -93.03125 117.3125 -92.09375 C 116.84375 -91.15625 114.859375 -90.28125 111.359375 -89.46875 C 107.859375 -88.65625 105.640625 -87.78125 104.703125 -86.84375 C 103.765625 -85.90625 103.351562 -84.851562 103.46875 -83.6875 C 103.59375 -82.519531 103.070312 -81.9375 101.90625 -81.9375 L 100.84375 -85.4375 C 100.144531 -85.207031 99.269531 -84.625 98.21875 -83.6875 C 97.164062 -82.757812 96.175781 -82.296875 95.25 -82.296875 C 95.007812 -82.296875 94.65625 -82.410156 94.1875 -82.640625 C 93.726562 -82.867188 93.378906 -82.984375 93.140625 -82.984375 C 93.140625 -82.984375 92.847656 -81.929688 92.265625 -79.828125 C 91.679688 -77.734375 91.15625 -75.519531 90.6875 -73.1875 C 90.226562 -70.851562 90 -69.21875 90 -68.28125 L 90 -60.9375 C 82.757812 -59.300781 79.140625 -55.679688 79.140625 -50.078125 C 79.140625 -49.609375 79.253906 -48.4375 79.484375 -46.5625 C 79.722656 -44.695312 80.191406 -43.765625 80.890625 -43.765625 C 81.585938 -43.765625 82.632812 -44.640625 84.03125 -46.390625 C 85.4375 -48.148438 86.722656 -49.03125 87.890625 -49.03125 C 89.054688 -49.03125 89.640625 -48.328125 89.640625 -46.921875 C 89.640625 -45.984375 88.585938 -45.046875 86.484375 -44.109375 C 84.390625 -43.179688 82.640625 -42.132812 81.234375 -40.96875 C 79.835938 -39.800781 79.195312 -38.164062 79.3125 -36.0625 C 79.425781 -33.96875 79.25 -31.984375 78.78125 -30.109375 L 82.640625 -30.109375 C 82.171875 -30.347656 81.9375 -30.703125 81.9375 -31.171875 C 81.9375 -31.628906 82.109375 -32.207031 82.453125 -32.90625 C 82.804688 -33.613281 82.984375 -34.316406 82.984375 -35.015625 L 85.4375 -35.015625 C 85.207031 -34.316406 84.914062 -33.265625 84.5625 -31.859375 C 84.21875 -30.460938 83.8125 -29.765625 83.34375 -29.765625 Z M 137.265625 -154.078125 C 137.265625 -154.546875 137.382812 -154.894531 137.625 -155.125 L 137.96875 -155.125 C 138.4375 -155.125 139.132812 -155.066406 140.0625 -154.953125 C 141 -154.835938 141.46875 -154.660156 141.46875 -154.421875 C 141.46875 -154.191406 140.882812 -153.898438 139.71875 -153.546875 C 138.550781 -153.203125 137.734375 -152.910156 137.265625 -152.671875 Z M 33.265625 -131.671875 C 32.566406 -131.671875 32.21875 -132.132812 32.21875 -133.0625 L 32.21875 -134.109375 L 34.671875 -134.109375 C 33.960938 -133.410156 33.492188 -132.597656 33.265625 -131.671875 Z M 90 -111.703125 L 88.9375 -115.5625 C 89.644531 -115.5625 90.226562 -115.851562 90.6875 -116.4375 C 91.15625 -117.019531 91.625 -117.3125 92.09375 -117.3125 C 92.09375 -117.3125 92.148438 -117.25 92.265625 -117.125 C 92.390625 -117.007812 92.566406 -116.953125 92.796875 -116.953125 C 93.492188 -116.253906 93.84375 -115.4375 93.84375 -114.5 C 93.84375 -114.269531 93.785156 -113.742188 93.671875 -112.921875 C 93.554688 -112.109375 93.148438 -111.703125 92.453125 -111.703125 Z M 143.21875 -99.09375 C 142.988281 -99.09375 142.582031 -99.5 142 -100.3125 C 141.414062 -101.132812 141.125 -101.78125 141.125 -102.25 C 141.125 -102.476562 141.238281 -102.710938 141.46875 -102.953125 L 141.8125 -102.953125 C 142.28125 -102.953125 142.863281 -102.71875 143.5625 -102.25 C 144.269531 -101.78125 144.625 -101.3125 144.625 -100.84375 C 144.625 -100.84375 144.445312 -100.550781 144.09375 -99.96875 C 143.75 -99.382812 143.457031 -99.09375 143.21875 -99.09375 Z M 86.140625 -99.453125 C 86.835938 -101.316406 87.890625 -102.25 89.296875 -102.25 L 90.34375 -102.25 C 90.570312 -102.25 90.6875 -102.015625 90.6875 -101.546875 C 90.6875 -100.148438 89.753906 -99.453125 87.890625 -99.453125 Z M 144.625 -100.84375 C 144.382812 -101.082031 144.382812 -101.082031 144.625 -100.84375 Z M 81.9375 -93.140625 C 79.832031 -93.140625 78.78125 -94.191406 78.78125 -96.296875 C 78.78125 -97.460938 79.363281 -98.046875 80.53125 -98.046875 C 81.707031 -98.046875 82.757812 -98.160156 83.6875 -98.390625 L 84.390625 -97.703125 L 84.734375 -97 C 84.503906 -96.53125 84.332031 -95.882812 84.21875 -95.0625 C 84.101562 -94.25 83.8125 -93.726562 83.34375 -93.5 Z M 44.828125 -96.640625 C 45.523438 -96.410156 45.8125 -96.175781 45.6875 -95.9375 C 45.570312 -95.707031 45.632812 -95.128906 45.875 -94.203125 L 44.46875 -94.203125 L 44.46875 -96.640625 Z M 116.953125 -85.796875 C 116.722656 -85.796875 116.609375 -85.910156 116.609375 -86.140625 L 116.609375 -86.5 C 116.609375 -87.425781 116.84375 -88.179688 117.3125 -88.765625 C 117.78125 -89.347656 118.128906 -90.109375 118.359375 -91.046875 L 119.0625 -90.6875 C 118.820312 -90.457031 119.050781 -90.164062 119.75 -89.8125 C 120.457031 -89.46875 120.8125 -89.0625 120.8125 -88.59375 C 120.8125 -88.125 120.285156 -87.539062 119.234375 -86.84375 C 118.179688 -86.144531 117.421875 -85.796875 116.953125 -85.796875 Z M 42.71875 -88.25 L 44.125 -90.6875 C 44.351562 -90.6875 44.582031 -90.335938 44.8125 -89.640625 C 45.050781 -88.941406 45.171875 -88.476562 45.171875 -88.25 Z M 105.75 -77.390625 C 105.050781 -77.390625 104.46875 -77.738281 104 -78.4375 C 103.53125 -79.132812 103.296875 -79.71875 103.296875 -80.1875 C 103.296875 -82.050781 104.113281 -82.984375 105.75 -82.984375 C 106.21875 -82.984375 106.921875 -82.753906 107.859375 -82.296875 C 108.316406 -82.054688 108.546875 -81.472656 108.546875 -80.546875 C 108.546875 -78.441406 107.613281 -77.390625 105.75 -77.390625 Z M 46.578125 -62.328125 C 46.578125 -63.492188 46.691406 -64.425781 46.921875 -65.125 L 47.96875 -65.125 L 47.96875 -64.78125 C 47.96875 -64.3125 47.910156 -63.664062 47.796875 -62.84375 C 47.679688 -62.03125 47.273438 -61.625 46.578125 -61.625 Z M 85.09375 -60.234375 C 86.257812 -60.234375 86.84375 -61.050781 86.84375 -62.6875 L 86.5 -64.4375 L 85.09375 -64.4375 C 84.625 -64.4375 84.390625 -64.316406 84.390625 -64.078125 C 83.921875 -63.148438 83.6875 -62.332031 83.6875 -61.625 C 83.6875 -60.695312 84.15625 -60.234375 85.09375 -60.234375 Z M 23.109375 -60.578125 L 22.0625 -60.9375 L 22.0625 -63.03125 L 22.40625 -63.03125 L 23.109375 -62.328125 Z M 91.046875 -53.21875 C 90.578125 -53.21875 90.222656 -53.625 89.984375 -54.4375 C 89.753906 -55.257812 89.640625 -55.90625 89.640625 -56.375 L 90 -59.875 L 90 -60.9375 L 94.890625 -60.9375 C 94.660156 -60 94.132812 -58.476562 93.3125 -56.375 C 92.5 -54.269531 91.742188 -53.21875 91.046875 -53.21875 Z M 91.75 -33.96875 C 91.039062 -33.96875 90.6875 -34.203125 90.6875 -34.671875 C 90.6875 -34.671875 90.742188 -34.726562 90.859375 -34.84375 C 90.984375 -34.957031 91.046875 -35.132812 91.046875 -35.375 L 90.34375 -36.421875 L 91.75 -37.8125 L 91.75 -38.515625 L 91.046875 -38.171875 C 90.804688 -38.171875 90.6875 -38.40625 90.6875 -38.875 C 90.6875 -42.132812 91.269531 -44.929688 92.4375 -47.265625 C 93.613281 -49.609375 95.832031 -51.007812 99.09375 -51.46875 C 99.800781 -51.46875 100.15625 -50.769531 100.15625 -49.375 C 100.15625 -47.738281 99.335938 -46.046875 97.703125 -44.296875 C 96.066406 -42.546875 94.898438 -40.851562 94.203125 -39.21875 L 95.59375 -39.21875 L 95.25 -37.8125 C 95.71875 -37.8125 96.242188 -37.925781 96.828125 -38.15625 C 97.410156 -38.394531 97.929688 -38.515625 98.390625 -38.515625 C 99.097656 -38.515625 99.453125 -38.050781 99.453125 -37.125 C 98.285156 -35.957031 97.582031 -35.375 97.34375 -35.375 C 96.875 -35.375 96.40625 -35.601562 95.9375 -36.0625 C 95.476562 -36.53125 95.015625 -36.765625 94.546875 -36.765625 C 93.847656 -36.765625 93.320312 -36.296875 92.96875 -35.359375 C 92.625 -34.429688 92.21875 -33.96875 91.75 -33.96875 Z M 93.140625 -28.015625 L 93.5 -29.421875 C 93.5 -29.648438 93.265625 -29.765625 92.796875 -29.765625 L 92.453125 -30.46875 C 93.148438 -30.9375 93.726562 -31.460938 94.1875 -32.046875 C 94.65625 -32.628906 95.359375 -32.921875 96.296875 -32.921875 L 95.953125 -31.859375 C 96.878906 -30.929688 97.34375 -30.347656 97.34375 -30.109375 C 97.34375 -30.109375 97.285156 -30.050781 97.171875 -29.9375 C 97.054688 -29.820312 97 -29.648438 97 -29.421875 C 96.757812 -28.953125 96.234375 -28.65625 95.421875 -28.53125 C 94.609375 -28.414062 93.847656 -28.242188 93.140625 -28.015625 Z M 97 -12.25 C 95.59375 -12.25 94.890625 -13.066406 94.890625 -14.703125 L 94.890625 -17.15625 C 95.359375 -17.394531 95.882812 -17.742188 96.46875 -18.203125 C 97.050781 -18.671875 97.460938 -18.90625 97.703125 -18.90625 C 97.929688 -18.90625 98.046875 -18.847656 98.046875 -18.734375 C 98.046875 -18.617188 98.160156 -18.5625 98.390625 -18.5625 C 98.859375 -17.625 99.09375 -16.6875 99.09375 -15.75 C 99.09375 -15.050781 98.914062 -14.289062 98.5625 -13.46875 C 98.21875 -12.65625 97.695312 -12.25 97 -12.25 Z M 90.34375 -10.5 C 89.40625 -10.5 88.9375 -10.851562 88.9375 -11.5625 C 88.9375 -12.019531 89.050781 -12.539062 89.28125 -13.125 C 89.519531 -13.707031 89.640625 -14.234375 89.640625 -14.703125 L 92.09375 -14.703125 L 92.09375 -13.3125 C 92.09375 -11.4375 91.507812 -10.5 90.34375 -10.5 Z M 85.09375 -8.046875 C 84.851562 -8.046875 84.617188 -8.394531 84.390625 -9.09375 C 84.160156 -9.800781 84.046875 -10.269531 84.046875 -10.5 C 84.046875 -10.738281 84.160156 -10.859375 84.390625 -10.859375 C 85.085938 -10.617188 85.4375 -10.148438 85.4375 -9.453125 C 85.4375 -8.515625 85.320312 -8.046875 85.09375 -8.046875 Z M -7.359375 -4.90625 L -7 -7.359375 L -4.546875 -7.359375 C -4.546875 -5.722656 -5.25 -4.90625 -6.65625 -4.90625 Z M 26.96875 5.953125 L 27.3125 3.5 L 29.765625 3.5 L 29.765625 3.859375 C 29.765625 5.253906 29.296875 5.953125 28.359375 5.953125 Z M -40.265625 11.203125 C -40.960938 11.203125 -41.3125 10.738281 -41.3125 9.8125 L -41.3125 8.75 L -38.875 8.75 C -39.101562 9.457031 -39.332031 9.691406 -39.5625 9.453125 C -39.800781 9.222656 -40.035156 9.804688 -40.265625 11.203125 Z M 49.375 12.609375 C 49.601562 12.140625 49.660156 11.671875 49.546875 11.203125 C 49.429688 10.734375 49.488281 10.382812 49.71875 10.15625 C 49.957031 10.15625 50.3125 10.972656 50.78125 12.609375 Z M 94.546875 13.3125 C 93.847656 13.3125 93.5 12.84375 93.5 11.90625 L 93.5 10.859375 L 95.953125 10.859375 C 95.710938 11.554688 95.472656 11.785156 95.234375 11.546875 C 95.003906 11.316406 94.773438 11.90625 94.546875 13.3125 Z M -40.96875 24.859375 C -41.664062 24.859375 -42.015625 24.507812 -42.015625 23.8125 C -42.015625 23.582031 -41.894531 23.289062 -41.65625 22.9375 C -41.425781 22.582031 -41.3125 22.289062 -41.3125 22.0625 L -38.875 22.0625 L -38.875 23.109375 C -38.875 24.273438 -39.570312 24.859375 -40.96875 24.859375 Z M 16.453125 27.3125 C 15.984375 27.3125 15.75 27.195312 15.75 26.96875 C 15.75 26.5 15.925781 25.910156 16.28125 25.203125 C 16.632812 24.503906 16.8125 23.925781 16.8125 23.46875 L 20.65625 23.46875 C 19.957031 25.09375 19.550781 26.140625 19.4375 26.609375 C 19.320312 27.078125 18.328125 27.3125 16.453125 27.3125 Z M 7.359375 49.71875 C 7.117188 49.71875 6.707031 49.601562 6.125 49.375 C 5.539062 49.144531 5.25 48.796875 5.25 48.328125 C 5.25 47.859375 5.421875 47.269531 5.765625 46.5625 C 6.117188 45.863281 6.414062 45.164062 6.65625 44.46875 L 9.109375 44.46875 C 8.867188 45.40625 8.75 46.515625 8.75 47.796875 C 8.75 49.078125 8.285156 49.71875 7.359375 49.71875 Z M 23.109375 48.671875 L 23.46875 46.21875 L 25.90625 46.21875 C 25.90625 47.851562 25.207031 48.671875 23.8125 48.671875 Z M -9.109375 68.28125 C -8.640625 68.28125 -8.40625 68.046875 -8.40625 67.578125 C -8.40625 67.578125 -8.460938 67.578125 -8.578125 67.578125 C -8.691406 67.578125 -8.75 67.460938 -8.75 67.234375 C -8.75 66.296875 -8.285156 65.828125 -7.359375 65.828125 C -6.890625 65.828125 -6.65625 66.175781 -6.65625 66.875 C -6.65625 67.582031 -6.65625 68.050781 -6.65625 68.28125 Z M -52.875 85.796875 C -53.34375 85.796875 -53.578125 85.675781 -53.578125 85.4375 C -53.578125 84.96875 -53.457031 84.554688 -53.21875 84.203125 C -52.988281 83.859375 -52.875 83.570312 -52.875 83.34375 L -53.921875 83.34375 L -53.921875 81.59375 C -53.921875 80.65625 -53.804688 80.070312 -53.578125 79.84375 C -53.109375 79.375 -52.523438 79.140625 -51.828125 79.140625 C -51.128906 79.140625 -50.78125 79.835938 -50.78125 81.234375 C -50.78125 82.171875 -50.953125 83.164062 -51.296875 84.21875 C -51.648438 85.269531 -52.175781 85.796875 -52.875 85.796875 Z M -75.28125 83.6875 C -76.445312 83.6875 -77.03125 83.222656 -77.03125 82.296875 L -77.03125 81.9375 C -77.03125 81.707031 -76.679688 81.59375 -75.984375 81.59375 C -75.753906 81.59375 -75.226562 81.59375 -74.40625 81.59375 C -73.59375 81.59375 -73.1875 81.828125 -73.1875 82.296875 C -73.1875 83.222656 -73.882812 83.6875 -75.28125 83.6875 Z M -85.796875 93.5 C -86.023438 93.5 -86.253906 93.144531 -86.484375 92.4375 C -86.722656 91.738281 -86.84375 91.273438 -86.84375 91.046875 C -86.84375 90.804688 -86.726562 90.6875 -86.5 90.6875 C -85.789062 90.925781 -85.4375 91.394531 -85.4375 92.09375 C -85.4375 93.03125 -85.554688 93.5 -85.796875 93.5 Z M -85.796875 93.5 "/></g></g></g></svg>